<?xml version="1.0" encoding="UTF-8"?>
<svg id="Layer_1" data-name="Layer 1" xmlns="http://www.w3.org/2000/svg" viewBox="0 0 818.27 829.12">
  <defs>
    <style>
      .cls-1 {
        fill: #fae34b;
      }

      .cls-2 {
        fill: #e64f01;
      }

      .cls-3 {
        fill: #f8be22;
      }

      .cls-4 {
        fill: #e89c38;
      }

      .cls-5 {
        fill: #f88b01;
      }

      .cls-6 {
        fill: #213c61;
      }

      .cls-7 {
        fill: #f4b726;
      }

      .cls-8 {
        fill: #fb8d01;
      }

      .cls-9 {
        fill: #0c1003;
      }

      .cls-10 {
        fill: #121b14;
      }

      .cls-11 {
        fill: #223d64;
      }

      .cls-12 {
        fill: #f27301;
      }

      .cls-13 {
        fill: #070a12;
      }

      .cls-14 {
        fill: #f56d00;
      }

      .cls-15 {
        fill: #0d2135;
      }

      .cls-16 {
        fill: #151f17;
      }

      .cls-17 {
        fill: #fbe44b;
      }

      .cls-18 {
        fill: #f46f00;
      }

      .cls-19 {
        fill: #f46b00;
      }

      .cls-20 {
        fill: #233f6c;
      }

      .cls-21 {
        fill: #0c0c13;
      }

      .cls-22 {
        fill: #0d0d13;
      }

      .cls-23 {
        fill: #0d1408;
      }

      .cls-24 {
        fill: #e25b00;
      }

      .cls-25 {
        fill: #132a45;
      }

      .cls-26 {
        fill: #f57000;
      }

      .cls-27 {
        fill: #0c0b10;
      }

      .cls-28 {
        fill: #fdd64c;
      }

      .cls-29 {
        fill: #f7dc4f;
      }

      .cls-30 {
        fill: #23406d;
      }

      .cls-31 {
        fill: #22406a;
      }

      .cls-32 {
        fill: #050f19;
      }

      .cls-33 {
        fill: #10180e;
      }

      .cls-34 {
        fill: #050c16;
      }

      .cls-35 {
        fill: #fce34d;
      }

      .cls-36 {
        fill: #081017;
      }

      .cls-37 {
        fill: #f98a00;
      }

      .cls-38 {
        fill: #213d67;
      }

      .cls-39 {
        fill: #100f10;
      }

      .cls-40 {
        fill: #111a14;
      }

      .cls-41 {
        fill: #f9be23;
      }

      .cls-42 {
        fill: #f2dc4a;
      }

      .cls-43 {
        fill: #111b14;
      }

      .cls-44 {
        fill: #f46d01;
      }

      .cls-45 {
        fill: #061117;
      }

      .cls-46 {
        fill: #06060d;
      }

      .cls-47 {
        fill: #0f1315;
      }

      .cls-48 {
        fill: #f36a01;
      }

      .cls-49 {
        fill: #fe7700;
      }

      .cls-50 {
        fill: #f27401;
      }

      .cls-51 {
        fill: #fbc943;
      }

      .cls-52 {
        fill: #0f160c;
      }

      .cls-53 {
        fill: #e38e30;
      }

      .cls-54 {
        fill: #fad349;
      }

      .cls-55 {
        fill: #fed94e;
      }

      .cls-56 {
        fill: #090a0f;
      }

      .cls-57 {
        fill: #0a0f14;
      }

      .cls-58 {
        fill: #080a12;
      }

      .cls-59 {
        fill: #fbbe24;
      }

      .cls-60 {
        fill: #f5dd4b;
      }

      .cls-61 {
        fill: #040911;
      }

      .cls-62 {
        fill: #060914;
      }

      .cls-63 {
        fill: #f57300;
      }

      .cls-64 {
        fill: #0f1813;
      }

      .cls-65 {
        fill: #f76c00;
      }

      .cls-66 {
        fill: #0d0d14;
      }

      .cls-67 {
        fill: #0e0c0c;
      }

      .cls-68 {
        fill: #e44901;
      }

      .cls-69 {
        fill: #f47401;
      }

      .cls-70 {
        fill: #090909;
      }

      .cls-71 {
        fill: #f7b921;
      }

      .cls-72 {
        fill: #f26b00;
      }

      .cls-73 {
        fill: #e44900;
      }

      .cls-74 {
        fill: #f5be23;
      }

      .cls-75 {
        fill: #fabb20;
      }

      .cls-76 {
        fill: #07101a;
      }

      .cls-77 {
        fill: #e05600;
      }

      .cls-78 {
        fill: #eaa838;
      }

      .cls-79 {
        fill: #0d0c0a;
      }

      .cls-80 {
        fill: #f56b00;
      }

      .cls-81 {
        fill: #213c62;
      }

      .cls-82 {
        fill: #000617;
      }

      .cls-83 {
        fill: #e54e03;
      }

      .cls-84 {
        fill: #fbb922;
      }

      .cls-85 {
        fill: #0d1308;
      }

      .cls-86 {
        fill: #1d2417;
      }

      .cls-87 {
        fill: #0d0f17;
      }

      .cls-88 {
        fill: #f2c63e;
      }

      .cls-89 {
        fill: #060a10;
      }

      .cls-90 {
        fill: #f7bb23;
      }

      .cls-91 {
        fill: #f28a01;
      }

      .cls-92 {
        fill: #f9e34d;
      }

      .cls-93 {
        fill: #f36700;
      }

      .cls-94 {
        fill: #fee95a;
      }

      .cls-95 {
        fill: #f7b822;
      }

      .cls-96 {
        fill: #040510;
      }

      .cls-97 {
        fill: #213e67;
      }

      .cls-98 {
        fill: #101812;
      }

      .cls-99 {
        fill: #e34300;
      }

      .cls-100 {
        fill: #203d65;
      }

      .cls-101 {
        fill: #f77a00;
      }

      .cls-102 {
        fill: #132946;
      }

      .cls-103 {
        fill: #ef6901;
      }

      .cls-104 {
        fill: #161f17;
      }

      .cls-105 {
        fill: #0d140b;
      }

      .cls-106 {
        fill: #e75d00;
      }

      .cls-107 {
        fill: #ed6a01;
      }

      .cls-108 {
        fill: #eb6400;
      }

      .cls-109 {
        fill: #fea01e;
      }

      .cls-110 {
        fill: #121c15;
      }

      .cls-111 {
        fill: #213c63;
      }

      .cls-112 {
        fill: #f5b625;
      }

      .cls-113 {
        fill: #f96f00;
      }

      .cls-114 {
        fill: #e89b34;
      }

      .cls-115 {
        fill: #fd7b01;
      }

      .cls-116 {
        fill: #0e0f14;
      }

      .cls-117 {
        fill: #ef6c01;
      }

      .cls-118 {
        fill: #fdd74c;
      }

      .cls-119 {
        fill: #0b0a0d;
      }

      .cls-120 {
        fill: #141e17;
      }

      .cls-121 {
        fill: #223e65;
      }

      .cls-122 {
        fill: #0e1214;
      }

      .cls-123 {
        fill: #e86200;
      }

      .cls-124 {
        fill: #fae54c;
      }

      .cls-125 {
        fill: #e76c01;
      }

      .cls-126 {
        fill: #f0b423;
      }

      .cls-127 {
        fill: #0d0e10;
      }

      .cls-128 {
        fill: #f97100;
      }

      .cls-129 {
        fill: #233f69;
      }

      .cls-130 {
        fill: #f76b01;
      }

      .cls-131 {
        fill: #f17302;
      }

      .cls-132 {
        fill: #0b0b0e;
      }

      .cls-133 {
        fill: #060b16;
      }

      .cls-134 {
        fill: #f3dc4a;
      }

      .cls-135 {
        fill: #e15b00;
      }

      .cls-136 {
        fill: #fcf251;
      }

      .cls-137 {
        fill: #08090c;
      }

      .cls-138 {
        fill: #0b1622;
      }

      .cls-139 {
        fill: #0b1116;
      }

      .cls-140 {
        fill: #203b5f;
      }

      .cls-141 {
        fill: #050611;
      }

      .cls-142 {
        fill: #090c14;
      }

      .cls-143 {
        fill: #f36a00;
      }

      .cls-144 {
        fill: #f16800;
      }

      .cls-145 {
        fill: #f37601;
      }

      .cls-146 {
        fill: #eece43;
      }

      .cls-147 {
        fill: #211d12;
      }

      .cls-148 {
        fill: #f87901;
      }

      .cls-149 {
        fill: #fa8501;
      }

      .cls-150 {
        fill: #fdd64b;
      }

      .cls-151 {
        fill: #f7bc22;
      }

      .cls-152 {
        fill: #08131a;
      }

      .cls-153 {
        fill: #e65c00;
      }

      .cls-154 {
        fill: #f56e01;
      }

      .cls-155 {
        fill: #e86000;
      }

      .cls-156 {
        fill: #edba39;
      }

      .cls-157 {
        fill: #e15c00;
      }

      .cls-158 {
        fill: #f67801;
      }

      .cls-159 {
        fill: #fedf52;
      }

      .cls-160 {
        fill: #fb7b00;
      }

      .cls-161 {
        fill: #fcc443;
      }

      .cls-162 {
        fill: #070709;
      }

      .cls-163 {
        fill: #fbc041;
      }

      .cls-164 {
        fill: #f87801;
      }

      .cls-165 {
        fill: #f8e54f;
      }

      .cls-166 {
        fill: #0f1810;
      }

      .cls-167 {
        fill: #040409;
      }

      .cls-168 {
        fill: #0f1509;
      }

      .cls-169 {
        fill: #fe7500;
      }

      .cls-170 {
        fill: #070c16;
      }

      .cls-171 {
        fill: #080b12;
      }

      .cls-172 {
        fill: #f9e44c;
      }

      .cls-173 {
        fill: #f77201;
      }

      .cls-174 {
        fill: #070b13;
      }

      .cls-175 {
        fill: #fedb52;
      }

      .cls-176 {
        fill: #091117;
      }

      .cls-177 {
        fill: #fa7000;
      }

      .cls-178 {
        fill: #121a12;
      }

      .cls-179 {
        fill: #010614;
      }

      .cls-180 {
        fill: #0a0d16;
      }

      .cls-181 {
        fill: #e64c02;
      }

      .cls-182 {
        fill: #e59432;
      }

      .cls-183 {
        fill: #0d1305;
      }

      .cls-184 {
        fill: #eb6c01;
      }

      .cls-185 {
        fill: #f07702;
      }

      .cls-186 {
        fill: #04060b;
      }

      .cls-187 {
        fill: #e64400;
      }

      .cls-188 {
        fill: #eca235;
      }

      .cls-189 {
        fill: #203858;
      }

      .cls-190 {
        fill: #22406c;
      }

      .cls-191 {
        fill: #fea01f;
      }

      .cls-192 {
        fill: #172731;
      }

      .cls-193 {
        fill: #f87c01;
      }

      .cls-194 {
        fill: #141d16;
      }

      .cls-195 {
        fill: #213d64;
      }

      .cls-196 {
        fill: #12273e;
      }

      .cls-197 {
        fill: #07080d;
      }

      .cls-198 {
        fill: #e34801;
      }

      .cls-199 {
        fill: #213b61;
      }

      .cls-200 {
        fill: #f9ba20;
      }

      .cls-201 {
        fill: #fe7600;
      }

      .cls-202 {
        fill: #f6dd49;
      }

      .cls-203 {
        fill: #0a1016;
      }

      .cls-204 {
        fill: #07101b;
      }

      .cls-205 {
        fill: #0f160a;
      }

      .cls-206 {
        fill: #f2db49;
      }

      .cls-207 {
        fill: #f4b13a;
      }

      .cls-208 {
        fill: #fce34a;
      }

      .cls-209 {
        fill: #051118;
      }

      .cls-210 {
        fill: #060911;
      }

      .cls-211 {
        fill: #061119;
      }

      .cls-212 {
        fill: #fde44c;
      }

      .cls-213 {
        fill: #ee6800;
      }

      .cls-214 {
        fill: #101709;
      }

      .cls-215 {
        fill: #f8ba3d;
      }

      .cls-216 {
        fill: #fdd74d;
      }

      .cls-217 {
        fill: #000516;
      }

      .cls-218 {
        fill: #100f12;
      }

      .cls-219 {
        fill: #f56a01;
      }

      .cls-220 {
        fill: #e25900;
      }

      .cls-221 {
        fill: #121b15;
      }

      .cls-222 {
        fill: #fab920;
      }

      .cls-223 {
        fill: #ef6f01;
      }

      .cls-224 {
        fill: #e45f00;
      }

      .cls-225 {
        fill: #f9b922;
      }

      .cls-226 {
        fill: #f7bb21;
      }

      .cls-227 {
        fill: #1f3857;
      }

      .cls-228 {
        fill: #101913;
      }

      .cls-229 {
        fill: #233e68;
      }

      .cls-230 {
        fill: #fdd94e;
      }

      .cls-231 {
        fill: #223e67;
      }

      .cls-232 {
        fill: #e65201;
      }

      .cls-233 {
        fill: #020d16;
      }

      .cls-234 {
        fill: #131c15;
      }

      .cls-235 {
        fill: #f6b822;
      }

      .cls-236 {
        fill: #0e0c0d;
      }

      .cls-237 {
        fill: #f36900;
      }

      .cls-238 {
        fill: #0d0c13;
      }

      .cls-239 {
        fill: #223d63;
      }

      .cls-240 {
        fill: #0b090c;
      }

      .cls-241 {
        fill: #f5da49;
      }

      .cls-242 {
        fill: #f5c426;
      }

      .cls-243 {
        fill: #fcc121;
      }

      .cls-244 {
        fill: #000915;
      }

      .cls-245 {
        fill: #1f3858;
      }

      .cls-246 {
        fill: #030417;
      }

      .cls-247 {
        fill: #ea6900;
      }

      .cls-248 {
        fill: #f1a334;
      }

      .cls-249 {
        fill: #fd7c00;
      }

      .cls-250 {
        fill: #04060c;
      }

      .cls-251 {
        fill: #09151f;
      }

      .cls-252 {
        fill: #040914;
      }

      .cls-253 {
        fill: #f7bc20;
      }

      .cls-254 {
        fill: #0f150c;
      }

      .cls-255 {
        fill: #f3bb26;
      }

      .cls-256 {
        fill: #121a0e;
      }

      .cls-257 {
        fill: #0f1418;
      }

      .cls-258 {
        fill: #f97c02;
      }

      .cls-259 {
        fill: #131d16;
      }

      .cls-260 {
        fill: #f1ab38;
      }

      .cls-261 {
        fill: #f06b01;
      }

      .cls-262 {
        fill: #040710;
      }

      .cls-263 {
        fill: #e44f02;
      }

      .cls-264 {
        fill: #070710;
      }

      .cls-265 {
        fill: #f88a01;
      }

      .cls-266 {
        fill: #f77002;
      }

      .cls-267 {
        fill: #050f17;
      }

      .cls-268 {
        fill: #08080c;
      }

      .cls-269 {
        fill: #1a1114;
      }

      .cls-270 {
        fill: #f5d949;
      }

      .cls-271 {
        fill: #f9bb41;
      }

      .cls-272 {
        fill: #fde44f;
      }

      .cls-273 {
        fill: #f9ba23;
      }

      .cls-274 {
        fill: #090712;
      }
    </style>
  </defs>
  <path class="cls-196" d="M158,3.89c85.77.47,172.77,1.14,261,2-.64.78-1.31,1.54-2.06,2.19s-1.46,1.21-2.29,1.58c-43.99,19.44-85.48,38.64-115.72,78.1l-4.92,3.05c-16.97,8.04-37.72,18.09-55.53,29.12C102.33,204.29,46,358.16,100,509.76c14.17,39.79,33.53,65.73,58.65,98.67.61.8,1.03,1.74,1.42,2.71s.69,2.07.94,3.15c2.91-.92,2.8.56,2,3,.08.78.12,1.55.03,2.31-.28,2.25-21.88,33.23-25.43,37.53-.91,1.1-2.28,1.67-3.6,2.12-4.1,7.86-5.86,15.91-5.27,24.15.38,2.31,4.39,8.56,6.43,11.24,11.76,15.52,45.28,41.04,66.07,33.41l2.78,1.13.16-2.26c13.01-11.45,23.89-25.17,32.65-41.14.23-.23,4.76-3.06,5.19-2.56,2.42.22,4.91.47,7.14,1.5,32.5,14.96,59.05,26.75,94.25,35.29,18.75,4.55,36.35,5.97,54.32,7.06l1.29,2.1-1.17.46c7.8.28,15.19.13,22.17-.46l.49-2.05c131.57-5.47,257.35-91.92,300.92-220.73,21.47-63.49,25.24-132.15,6.68-196.83l-.09-6.97v-2l-.35-6.31c5.49-21.06,8.08-42.82,7.57-64.58l1.78-6.04c.77-9.94-.14-20.76-3-29.97l-2.27-.86c-7.37-25.9-19.5-24.98-40.36-12.58l-19.91,13.3-2.46-.86-3.11-1.5c-14.37-15.75-29.14-30.88-44.32-45.38l-.57-2.06c.53-5.78.78-11.96,1-17.98l-2.39-1.65c-10.33-27.16-56.54-57.91-82.56-33.55l-3.04.23-2.71.24c-18.27-8.04-36.92-13.78-56.11-18.28-1.47-.23-1.99-1.46-2.18-2.95-.41.82-.75.48-1-1-1.69-6.75.31-16.25,3-22.98l-1.56-2.02c6.24-13.05,6.61-24.82,1.11-35.31l.44-2.64c62.52-1.42,124.18-2.09,185-2,71.51,2.7,129.91,48.86,150.27,117.12,1.23,4.11,5.21,29.63,6.73,29.74.87,163.3.87,334.22.04,498.06.21,82.26-67.8,158.62-150.53,164.98-.71.05-1.46-.2-2.23-.49s-1.55-.72-2.28-1.19H158c-.76.47-1.53.91-2.35,1.22-6.21,2.32-29.52-3.61-37.11-5.9C51.93,787.28,2.63,721.5,1,652.26.34,486.35.34,320.18,1,153.74c1.79-.03,6.05-30.19,7.5-34.96C28.79,52.19,88.49,6.82,158,3.89Z"/>
  <path class="cls-138" d="M0,652.26c.28-.87.62-.86,1,0,7.59,83.6,70.17,156.08,157,159.84h504c85.71-4.95,150.41-79.62,155.04-163.3l-.04-498.06c.09,0,.74-2.1,1-.5-1.08,172.04,2.14,344.54-1.62,516.32.32,83.13-69.92,156.02-151.85,162.56l-517.99-.1c-53.34-8.19-97.07-37.18-123.73-84.19-17.45-30.79-20.51-57.88-22.83-92.58Z"/>
  <path class="cls-64" d="M473,4.89c1.28-.57,2.43-.48,2,1,11.1,12.93,3.25,26.34,0,39.96-6.37,16.22-4.96,42.71,1,62.94-1.04,2.63-2.9,2.32-5.59-.95-3.43,3.25-6.88.9-5.52-3.55-1.35-.44-2.85-.66-4.18-.15-.65,3.43-2.06,4.48-4.23,3.15l-2.48-11.48c-.71-.41-1.35-.87-1.73-1.49-3.99-6.55-2.14-41.16,1.73-49.46,1.18-3.91,1.84-7.91,2-11.99.34-3.2,1.01-6.6,2-10.21-1.33-2.39-1.33-3.65,0-3.78-9.31.28-18.97,2.28-29,5.99.43,1.1-.57,1.77-3,2-.33.49-.67.49-1,0-5.42.29-11.78,2.92-16,5-1.62,1.95-4.29,3.28-8,4-.18.9-.52.86-1,0-2.1-.44-4.79.59-6,2,.87.33.87.67,0,1-2.89,2.23-7.36,4.72-11,5-2.49.01-6.32,2.15-8,4,.29.96-.04,1.29-1,1,1.32,2.84-3.04,5.28-5,3-2.85.36-6.3,2.36-7,5-.83,3.99-5.94,7.78-10,6.99-.6.98-1.6,1.98-3,3-1.44,1.8-3.1,2.8-5,3-2.75.37-5.34,3.78-6,5,.91,1.44-1.36,3.05-3,3-3.35,1.68-7.02,5.01-11,9.99.04,1.25-.63,3.28-2,3-1.29.58-2.96,2.24-5,5,2.18,2.21.14,6.38-3,5.99-1.07,1.76-2.4,3.09-4,4,1.88,2.43-2.43,7.89-5,7.99-1.55,2.96-3.65,5.63-6,7.99,2.02,2.36-1.07,6.7-4,5.99-1.74.63-2.98,3.74-3,5.99.87.25.85.58,0,1l-3.8,8.41-1.2-.42c-2.14,3.72-7.11,13.03-8,19.98,2.08,2.08,1.83,3.16-1,4-.41,2.1-1.08,3.09-2,3-1.54,2.86-5.2,12.71-5,18.98,2.55,1.13,2.55,1.86,0,3-.39,1.6-1.05,2.27-2,2-.68,3.64-1.68,6.97-3,9.99l-1.91,4.94c.45,2.52-.47,17.92-1.08,18.63-2.87,3.33-5.19-5.3-3.46-7.99-5.41-1.89-6.87-6.79-4.39-14.7-4.6.22-6.65-2.74-6.16-8.87-.71-.33-.71-.67,0-1-.07-2.78.58-8.91,3-9.99-.18-5.52.88-11.17,3.19-16.93l-.19-2.05c-1.79-3.97.07-9.01,4-10.99,1.46-7.34,5.15-14.54,9-20.98-.07-1.04-.09-2.08.03-3.09.71-6.12,18.13-35.01,23.23-38.43.85-.57,1.79-1.02,2.74-1.44,31.48-41.41,76.74-67.08,125-84.92,1.14-1.13,3.14-1.46,6-1,12.3-1.66,28.98-7.29,41.24-3.73,2.92.85,4.49,2.72,6.76,3.73Z"/>
  <path class="cls-251" d="M1,153.74v498.51H0L.5,152.75c.71.35.44.99.5.99Z"/>
  <path class="cls-25" d="M425,4.89c-2,.27-4.09.98-6,1-84.64.88-170.61-.09-255.51-.98-1.69-.02-4.45.64-5.49-1.02,86.25-3.63,175,2.74,261.51-.02l5.49,1.02Z"/>
  <path class="cls-25" d="M660,3.89c-1.04,1.66-3.79,1-5.49,1.02-59.54.74-120.24,1.76-179.51.98-.39,0-1.42-.74-2-1,1.04-1.66,3.79-1,5.49-1.02,59.24-.73,122.58-2.21,181.51.02Z"/>
  <path class="cls-227" d="M420,729.18c-6.94.82-14.06.77-21,0l-28.38-2.12c-45.55-6.38-88.34-22.27-128.62-43.83-1.46-.66-.42-2.59,1-3l.03-2.86c30.97-40.16,60.71-82.62,89.24-127.4,2.91-3.83,6.16-7.37,9.73-10.6,5.2-12.81,13.79-24.65,24-33.97,4.06-10.72,10.98-20.82,20-27.97,8.08-17.12,18.86-33.3,32-46.95,3.97-6.1,7.56-12.36,10.77-18.77,16.95-22.66,32.61-45.54,46.98-68.64l2.25-.51c4.48-2.66,9.62,7.45,11.43,11.35,2.51,3.63,3.03,6.51,1.57,8.63,1.17,5.77,2.84,11.43,5,16.98.28-.87.62-.86,1,0,1.47,3.35,2.63,7.25,2,10.99,3.05.86,3.67,4.23,1,5.99.03,8.89.36,17.88,1,26.97,2.56,1.13,2.56,1.86,0,3-.68,6.5-2.35,12.49-5,17.98-1.49,3.88-2.49,7.87-3,11.99-.23,7.27.02,13.86,5,19.98.85-.41,1.15-.03,1,1,4.07,3.02,8.72,4.96,13.95,5.82l.05,1.17c1.21.5,6.53.3,9-1,1.16-1.74,3.49-2.4,7-2-.43-2.84,3.18-4.27,5-2,6.7-2.81,13.75-5.36,21-5.99,3.04-.22,6.52-.47,9-2-.57-.7-.74-1.44-.39-2.22,23.05-7.25,45.06-19.6,65.07-33.99l7.33-2.75,2.89-4.59c26.37-19.26,48.7-43.49,64.87-71.9l4.24-3.43c2.54-2.42,6.5-10.02,8-14.99,4.14-11.49,8.15-23.26,12-34.97,22.32,70.54,17.13,148.32-9.25,217.04-42.19,109.9-148.27,189.75-264.38,206.42l-34.37,3.13Z"/>
  <path class="cls-227" d="M294,90.8c-10.08,13.26-18.76,27.95-26,42.96-3.41,5.63-7.91,13.91-9,20.98-1.39,3.66-2.8,7.25-4,10.99-.06,3.91-1.39,10.66-4,12.99-2.61,6.83-4.06,14.6-4,21.98,1.52.85.75,5.58-1,3-.6.18-.71-.23-.74-.83,1.05,2.89.17,6.34-1.26,8.82.25,1.84.59,3.84,1,5.99,1.11,1.12.99,5.32-1,5-.35-.33-.61-.58-.62-.54-1.31,13.7-1.43,27.86-.38,41.5,1.4,1.31,1.73,3.64,1,6.99-.32,6.95.02,13.94,1,20.98.43,1.59.76,2.92,1,4,2.31,1.36,3.77,4.16,4.38,8.39,1.96,2.96,2.5,5.49,1.62,7.59,3.39,2.73,7.12,5.16,11.16,6.77l-.16,1.22c2.48,1.57,12.81.59,17-3l-1.02-2.09c6.75-6.49,13.98-12.41,21.69-17.74l2.33.86c5.12-4.93,10.87-8.83,18.01-11.36l1.99,1.37c.51-1.15,3.05-1.81,4-1,20.37-4.12,43.39-6.29,63.41,1.18l-1.41,4.81c.67,1.01.1,1.58-1,2-38.32,61-79.22,120.6-123,177.83-22.76,38.11-48.95,74.49-77,108.89-.91,6.13-4.64,10.52-9.42,14.3-2.39,4.39-5.25,7.95-8.58,10.67-1.91,2.85-4.6,5.88-8.06,9.07l-.94-1.08c-32.13-37.39-54.18-73.1-68.5-120.89-51.69-172.49,36.05-332.88,196.52-402.07,1.17-.5,4.16-2.3,4.98-.53Z"/>
  <path class="cls-228" d="M622,125.77c.7,11.27-1.83,19.4-7,28.97.05.9.07,1.8-.06,2.67-.73,5.07-19.86,29.73-24.74,35.71l-4.2,2.58,1,5c8.68,1.62,17.01,3.62,25,5.99l8.09,1.13c-.57,1.33-1.35,2.64-2.33,3.94-.52,7.73-5.47,10.28-14.85,7.63.61,2.48-.03,3.91-1.91,4.28.41.37.08.7-1,1-1.52.49-3.52.49-6,0-2.57,1.74-15.39,3.23-10-2-.43-1.08,4.22-1.01,4-.99-6.13.67-12.53-.34-18-3.01-8.12-2.47-16.12-5.13-24-7.99-1.99,2.19-4.03.71-3-2-2.27-1.89-4.94-3.55-8-5-1.93,2.02-2.68,1.78-3-1-1.97,0-4.15-1.2-5-3-5.49-.04-24.08-13.81-25.53-17.82-.25-.69-.38-1.42-.47-2.16-.95.28-1.28-.05-1-1v-1c.48-1.85,1.3-1.98,2.86-1.15l11.02,9.39c2.29,2.42,5.44-2.79,5.15-5.46-1.94-4.15.82-9.49,4.97-6.78-.81-1.32-.14-1.65,2-1,1.88-1.95,2.39-1.69,2,1l3.64.21c6.66,4.29,12.45,9.21,17.36,14.78,3.79,1.93,7.79,2.93,12,3,1.55-2.2,3.22-4.53,5-6.99,1.36-2.74,3.03-4.73,5-5.99-.44-4.03,1.98-7.33,6-7.99-.53-1.35.72-2.88,2-3l.4-4.01c6.04-8.98,12.12-17.78,18.24-26.4l2.36-.57c.38-4.34.59-8.64,0-12.99-2.65.54-6.54-3.14-6-5.99l-3.01.13-16.13-11.2-.86-2.92c-2.47,1.68-5.07-.25-4-3-1.12-2.01-7.68-4.92-8-3-2.58.23-4.91.89-7,2,.64,2.42-.41,4.18-3,3-1.15,1.85-2.48,2.85-4,3-.68-.76-3.88,2.91-4,5.99,1.37,3.3-3.44,10.04-7,9.99-3.16,2.97-6.11,7.82-7,11.99,1.37,2.52.85,3.29-2,3-3.98,2.9-6.34,2.83-7.07-.22-.64-4.12-2.94-7.29-6.87-9.53.14,4.89-6.07,5.69-5.05.76l-.39-2.96c6.91-11.66,14.4-22.91,22.47-33.75l2.92-.25c17.02-18.06,40.08-12.06,58.33.17,12.62,8.46,26.85,18.95,29.67,34.8Z"/>
  <path class="cls-40" d="M669,192.7c12.37-7.12,30.79-23.61,44.51-23.05,12.35.51,18.06,13.56,20.49,24.04,2.9,9.36,3.76,20.03,3,29.97,1.29,25.95-1.79,51.83-9,76.92-.75,5.52-2.42,10.18-5,13.99-2.97,1.87-4.38-1.68-4.57-4.56,1.6-6.44-.32-10.81-5.26-15.01-2.57,4-5.17,3.28-5.16-1.42,6.81-33.8,10.46-68.83,1-102.9-.44,2.7-1.02,2.88-3,1l-1.16,2.87c-2.14,2.05-19.8,14.71-21.08,14.57-.6-.06-1.18-.25-1.76-.46-.27,1.52-2.57,2.46-4,2-3.92.91-6.92,2.24-9,4,1.85,2.65-1.03,4.36-3,2-7.75,1.73-15.75,3.73-24,5.99-1.2.34-2.53.67-4,1-9.3,1.47-20.25,2.57-29,0-2.4.65-5.73.72-8,0,.22-1.23-.33-5.66,0-6,1.26-1.31,11.35,1.98,13.07-.4,1.96-2.7.27-7.27,4.93-9.57l-7-1.01,1.61-.84c16.67,1.22,35.73.83,49.39-9.15-.82-2.87,3.5-5.82,6-4Z"/>
  <path class="cls-245" d="M621,143.75c1.98-.02,2.77,1.35,4.02,2.48,15.77,14.3,29.93,30.58,43.98,46.47-1.95,1.12-4.2,3.08-6,4-5.65,4.34-14.69,7.81-22,7.99-9.89-.47-19.89-.47-30,0-3.53,1.21-11.4-.45-14-3l-1.37-.88c-7.17.08-10.38-1.62-9.63-5.11,9.23-13.74,20.4-26.45,29-40.96.68-3.65,3.75-8.25,6-10.99Z"/>
  <path class="cls-189" d="M534,90.8c-8.4,8.91-17.49,26.25-25,36.96.66,4-9.47,17.73-11.84,17.35-1.94-.31-12.81-16.77-14.5-19.93l.35-3.41c-3.63-7.7-6.3-15.7-8-23.98-2.84-8.82-3.13-18.89-2-27.97,8.58,3.56,22.49,5.46,32.52,8.97,9.68,3.39,19.15,7.81,28.48,12.01Z"/>
  <path class="cls-110" d="M188,581.32c6.39-3.01,7.75,6.27,5.47,11.7-2.81,6.72-4.85,6.67-10.42,3.11-1.71-.45-4.81,4.13-4.2,4.49,7.13-.54,6.65,6.04-.27,5.68,1.16,2.74.06,4.69-2.51,6,4.31,1.58,6.78,3.96,7.41,7.14,1.05-1.25,2.55-2.3,4.52-3.15-2.4,3.3-5.12,3.64-4.54-1.05.5-4.01,8.91-3.64,4.54,1.05.27-.24.5-.56.5-.93.02-3.42,1.69-12.61,6.39-12.14-.07-3.88,4.77-6.75,5.11-1.92.66,4.48-2.62,9.73-7,10.99.44,2.04-1.46,4.39-3,5.99.99,2.01.24,3.13-2,3-1.8,3.1-3.8,6.1-6,8.99,1.05.11-2.42,6.1-2.69,6.39-.58.62-1.49.67-2.31.61-.88,1.85-1.88,3.18-3,4,.68,4.56-4.51,10.94-9,11.99-.91,2.5-2.25,4.83-4,6.99.35,4.09-3.95,9.42-8,9.99-.97,3.74-2.3,5.73-4,5.99-1.68.5-.01,6.13,1.27,8.12l-.27.87c6.58,3.09-4.98,9.38-6.51,3.23l-5.33-.56c-2.11-2.51-4.23-2.1-6.36,1.21-7.86-.7-.31-25.97,2.21-29.85,7.92-13.63,19.85-28.6,29-41.96l-.32-1.92c2.54-3,4.98-6.02,7.32-9.07,5.84-8.41,12.13-16.6,18-24.98Z"/>
  <path class="cls-64" d="M134,659.25c2,.59,0,3-.49,4.01-4.16,8.54-5.96,14.16-3.51,23.96,3.17.86,2.74-3.75,3.01-3.99,1.61-1.43,4.32,2.3,5.72,2.78,1.11.38,5.35-.06,7.27,1.25l-1.01,1.96c1.62.3,5.54-1.05,5.89-2.48.08-.34-.85-1.09-.88-1.5-.67-1.58-.44-2.05,1-1,.33-.46.67-.13,1,1,2.66-1.29,8.1,3.13,7,5.99l2.85-.25,10.63,7.92c5.01,2.96,9.38,5.71,13.52,9.32,4.3.95,8.64,1.28,12-2-.23-2.51,2.53-4.97,5-4,1.91,1.56,1.9,4.24-.02,8.04,1.72,3.8,1.51,7.94-.62,12.41,2.26,2.79,2.81,4.96,1.64,6.52-17.45,6.74-29.36-.75-43.31-10.18-22.49-15.18-43.61-30.62-26.69-59.76Z"/>
  <path class="cls-40" d="M227,668.24c2.19-.97,3.64-.48,5.52.87,8.08-1.72,7.3,6.79,5.79,12.28,1.26-2.5,4.75-5.48,4.69-1.17-.68.72-.65,2.51-1,3-.31.43-1.69.89-2.44,2.01-7.25,10.82-24.48,39.66-35.56,43.94-.84-1.62-3.72-4.86-3.61-6.47.15-2.34,2.3-5.17,1.7-10.09-.31-2.52-3.75-.36-.67-3.5l1.59-6.91-.55-2.53c3.11-3.02,5.96-6.17,8.55-9.46-1.48-2.63.32-4.02,3-3,.96.09,3.15-2.57,3-5,.27-5.59,4.8-11.9,10-13.99Z"/>
  <path class="cls-52" d="M475,45.85c-2.01,8.43-2.71,14.33-3,22.98.29,9.67.95,19.33,2,28.97,2.59,6.3,4.59,12.63,6,18.98.6,1.73.29,2.8-1.4,2.33-2.22-.62-5.3-8.55-2.6-10.32-7.39-21.33-8.21-41.61-2.12-63.57l1.12.63Z"/>
  <path class="cls-214" d="M728,302.6c-2.41,11.39-6.47,24.74-12,34.97.25,1.97-1.04,5.3-3,4l-.64-3.48,7.82-21.4,2.82-2.09c1.42-4.19,3.87-10.07,5-13.99-.08.64.12,1.41,0,2Z"/>
  <path class="cls-102" d="M737,223.67c-.44-8.86-1.05-21.54-3-29.97l1.05-.56c1.18,9.81,4.76,20.76,1.95,30.53Z"/>
  <path class="cls-205" d="M621,143.75c-1.2,3.46-4.07,7.73-6,10.99-2.11-.65.04-2.94.59-3.91,2.13-3.73,4.2-6.57,4.96-11.02.83-4.82-.53-9.75,1.45-14.04,1.02,5.72.92,12.48-1,17.98Z"/>
  <path class="cls-15" d="M399,729.18c6.98-.08,14.01.06,21,0l8.99.99-35.49.02c-1.36-1.79,4.91-1,5.5-1Z"/>
  <path class="cls-38" d="M473,69.82c-.14,9.33-.14,18.86,2,27.97-.28.87-.62.86-1,0-2.15-9.99-2.34-18.75-2-28.97.38.22.71.88,1,1Z"/>
  <path class="cls-81" d="M170,606.3c-2.44,3.52-4.56,7.43-7,10.99-1.23-.58-1.41-2.31-2-3,3.71.29,4.4-3.11,6.39-6.1.32-.48,1.95-4.07,2.61-1.89Z"/>
  <path class="cls-161" d="M387,43.85c6.57-2.04,8.52-.98,5.83,3.2,2.6,2.37,2.52,4.53.35,7.19,2.89,2.95,4.34,5.07,3.09,9.32,2.74-.81,4.77-.91,3.72,2.27-1.42,1.85-4.72,4.09-7,4-1.37-.24-4.82.9-6,3-1.03,3.02-3.84,5.46-8.44,7.32-2.3,2.38-4.49,3.26-6.56,2.67l-5,4c-.25.88-.58.86-1,0-1.82.28-3.47,1.14-4,3,.87.28.86.62,0,1,1.12,2.22-1.79,5.17-4,4-1.01.89-1.68.89-2,0-2.77,1.93-5.1,4.26-7,6.99.64,1.31-.63,2.84-2,3,1.66,2.43-.55,4.42-3,3-1.93.86-3.87,2.75-4,5l-1,4.56c-3.02,4.96-16.61,25.81-19.66,27.48-.73.4-1.53.68-2.34.93-1.42,1.67-2.08,3.33-2,5,1.74,3.1-.56,7.42-4,7.99.58,1.59-.26,3.77-2,4-1.08-.58-1.46,1.7-1,4-.36,3.95-2.27,10.35-5,12.99-1.25.15-1.38,3.76-1,5,.16,2.92-.5,5.92-2,8.99-.25.85-.59.83-1,0-.67-2.06-1.35,3.43-1,5,2.63,1.24,1.86,3.91-1,4-2.82,8.26-4.46,17.38-4.92,27.37l-1.08,1.6c.33,11.03.67,21.69,1,31.97,1.45-.02,1.78,1.65,1,5-.72,1.95-.72,3.28,0,4,.28-.87.62-.86,1,0,.8.47.45,1.18,0,2,1.9,1.11,1.47,2.48,0,4,1.03.97.41,1.31-1,1,.28,2.84-.48,3.35-3,2-.74.06-2.48.26-3,2,1.03.95.38,1.02-1,1,.9,2.46-.08,2.75-2,1-.06,1.65-1.06,2.98-3,4,.91,2.79-2.74,4.65-5,3-1.72,1.1-3.06,2.43-4,4,1.88,2.18.54,3.37-2,2-.61.02-1.11,0-1.21-.23-2.26-4.82-2.61-14.6-2.79-19.76-.65-.33-.65-.67,0-1,.86-10.18,1.17-21.79,0-31.97-.93-.57-.84-1.29,0-2,.86-2.58.83-5.41,0-7.99-.8-2.51-.96-5.46,0-7.99.59-12.26,2.26-24.25,5-35.96.02-1-.02-2,0-3-.34-2.8-.09-6,2-7.99,2.04-4.21,3.71-8.87,5-13.99.35-1.31.64-2.66,1-4-.64-1.11-.37-2.28,1-2,.68,2.77,1.23-1.36,1-3-1.09-1.33.28-3.77,2-4,.82.49,2.13-2.48,2-5.99-.71-1.09.5-3.71,2-3,1.93-3.1,3.59-6.43,5-9.99.05-.33-.06-.68,0-1-.04-2.13,1.09-5.08,3-5.99,1.25-2.06,2.86-4.23,4-5.99,2.35-2.4,4.35-5.06,6-7.99,1.09-3.35,2.4-4.56,5-7.99,1.61-1,2.94-2.33,4-4,1.03-1.67,2.18-4.61,3-5.99.72-1.12,1.39-1.45,2-1,2.51-1.9,4.51-4.23,6-6.99,1.83-3.54,5.34-7.97,9-8.99,2.46-.98,4.59-2.76,6-5-.43-1.98,1.96-3.94,4-4,1.9-.26,3.56-1.25,5-3,1.16-1.03,2.16-2.03,3-3,3.33-2.33,6.53-4.89,10-6.99-.38-1.65.57-2.01,2-1,1.56-.83,2.89-1.83,4-3-1.06-1.03-.45-1.43,1-1,1.64-1.02,3.5-1.73,5-3,1.92-.14,3.26-.81,4-2-.36-1.53,1.54-2.39,3-2,.81.26,2.52-.28,5.13-1.63l.87.64Z"/>
  <path class="cls-221" d="M454,95.8c.78,3.01,3.65,7.03,3.01,10.98,1.85-.06.76-2.72,2.38-4.1,2.24-1.9,8.4-.24,8.51,1.6.05.83-3.4,1.68-.4,3.48,6.82-6.57,2.77,1.43,8.5,1.02.99,2.87,1.69,6.11,3.01,8.99l.99-1c1.57-.29,3.24,3.3,3,5,4.16,7.64,10.06,14.23,14.01,21.98,4.18-5.11,8.2-10.58,11.99-15.98l2.99,1.99c-.27-2.61.35-6.66,3-7.98-.83,4.71,5.31,7.12,6.45,8.96.21.34.83,5.56,2.58,7.02,2.75-1.04-.45-4.24,3.49-4.98l.49,3.99.96,2.15-5.13,6.7c-1.32,4.44-3.6,7.49-6.83,9.14-.73,1.46-1.39,1.8-2,1-2.18,1.07-2.83,3.73-2,5.99,1.3,1.37,1.96,2.7,2,4,0,1.38.67,2.05,2,2,1.36-.48,2.69.18,4,2,1.47-1.3,2.02-.72,1,1,1.29.71,3.05,1.73,2,3-7.05,3.74-1.84,3.09-3.18,9.27-.64,2.93-4.29,4.39-3.83,7.72-5.28-3.47-9.75-7.89-14.49-12.02-.83-.73-2.25-.74-2.5-.96-5.1-3.75-10.34-8.83-14-13.99-1.15-1.88-2.15-2.88-3-3-5.37-1.8-10.12-8.32-10-13.99-1.49-4.05-3.49-8.04-6-11.99-5.68-10.5-11.53-22.19-13-33.97-1.3-1.18-1.94-4.49,0-5Z"/>
  <path class="cls-43" d="M249,195.7c1.69,1.28.42,3.9,1.96,5.53s5.77,1.26,6,1.5c1.57,1.61-5.19,16.93,5.04,13.96.44.35-2.7,8.67.5,9.98.13-4.14,1.3-8.42,1.59-12.49.17-2.43-1.11-4.42-1.09-5.9,0-.27,3.03-2.3,3-4.59-.02,10.46-.69,21.87-3,31.97-.05,7.04-.38,14.04-1,20.98-1.32,1.6-2.9.87-4.74-2.2-3.89,3.81-7.67,1.89-11.34-5.75l-.92-2.04c-2.06-11.54-.18-24.51,2-35.96,1.39-1.31,1.57-1.79,1-4-1.26-2.63-.27-8.23,1-10.99Z"/>
  <path class="cls-163" d="M400,37.86c5.35-1.94,6.46,1.3,3.33,9.71l.62,10.32c2.72,2.43,2.67,4.1-.95,4.95.17,1.08-1,1.64-2,2,.23.89-.11,1.22-1,1-1.05-2.51-4.45,1.43-4.99,1-1.72-1.4-.04-6.2-.25-7.37-.26-1.41-3.49-3.21-3.61-5.28-.08-1.42,1.95-2.43,1.76-3.7-.34-2.29-5.52-1.98.07-6.13l-5.98-.5c1.87-1.77,4.2-3.43,7-5-.15-.24.15-.76,0-1,.63-.96,2-1.71,3-1,1.58-.11,2.58.23,3,1Z"/>
  <path class="cls-33" d="M249,195.7c-.53,3.11-.53,7.52-1,10.99.66,1.52.7,3.38-1,4-1.44,12.27-1.83,23.64-2,35.96,3.02,3.19,2.55,11.48,2.12,16.16.5,4.34-.54,7.28-3.12,8.82v-1c-.16-2.46-.95-5.69-1-6.99-1.03-13.49-1.25-27.94,1-40.96,1.6-.84.96-3.39,1-5-.68-1.88-1.08-4.38,0-5.99.03-2.41.37-5.07,1-7.99.47.05.82-.02.99-.51.15-.8-.13-1.75,0-2.48-.48-2.46-.14-4.45,1-5.99.28-.87.62-.86,1,0-.06.32.06.68,0,1Z"/>
  <path class="cls-67" d="M266,226.67c-.41,2.73-.74,5.39-1,7.99l-1,11.99c1.46,1.96,1.44,4.02,0,5.99.84,4.3.84,8.69,0,12.99,1.33,1.86,1.34,5.14,0,6.99l1,5.99c1.84,5.29,2.18,10.28,1,14.99v1c-4.48-1.78-6.03-13.5-3-16.98-.73-13.93-.58-28.01,0-41.96.74-10.39,1.14-21.74,3-31.97.5-2.77,1.62-7.62,3-9.99-.56,10.94-1.56,21.93-3,32.97Z"/>
  <path class="cls-238" d="M454,95.8c.22,1.52-.32,3.64,0,5,.05.94,0,1.32-1,1-1.14-1.98-1.81-4.31-2-6.99-1.79-12.13-2.83-24.91-1-36.96-.51-3.3.57-7.78,2-10.99-1.48-.83-.42-1.5,1-2,.28-.87.62-.86,1,0-3.66,16.65-4.31,34.37,0,50.95Z"/>
  <path class="cls-92" d="M266,227.67v-1c.4-11.12,1.3-21.94,3-32.97.4-.68,1.47-1.31,2-2l-5,35.96Z"/>
  <path class="cls-119" d="M429,24.87c0-.14-.86-.56-1.01-.98,10.2-1.85,19.93-6.72,30.51-6.02,1.44.27-.51.95-.5,1l-.37,1.41c-4.17-.35-8.63.18-12.63,1.59.53,2.83-1.14,3.11-3,1-4.6,1.13-8.93,1.8-13,2Z"/>
  <path class="cls-248" d="M458,18.87c1.67,6.52-.52,8.04-2,13.99.39,1.81.71,4.13-1,5-2.8.34-3.51-1.7-2.16-6.09l2.49-8.63-8.8.51-1.53-1.77c3.44-2.57,8.8-2.28,13-3Z"/>
  <path class="cls-111" d="M268,133.76c-3.24,6.72-6.34,14-9,20.98-1.78-.67-.16-3.12.26-4.23,2.01-5.35,4.49-9.97,6.94-15.07.36-.75.87-4.15,1.81-1.68Z"/>
  <path class="cls-240" d="M287,142.75c1.65-.11,1.36,1.38,0,2-.67.1-1.63,2.24-2,3,.55,1.94-.56,4.63-2,5.99-.56,1.29-1.45,2.44-2,4,.42,1.09.21,2.64-1,3-.17.51-.76,1.11-1,2-1.95-1.07-.31-3.84.24-5.27,2.02-5.31,4.96-10.33,6.86-15.69.41.14.82.99.91.98Z"/>
  <path class="cls-70" d="M276,169.73c.42,3.51-.78,8.34-3,10.99-.72,2.64-1.32,5.34-2,7.99,0-.16-1.02-.93-.83-3.15.43-4.89,4.05-11.7,4.89-16.81.41.15.79.98.94.98Z"/>
  <path class="cls-23" d="M252,184.71c-1.22,1.74-1.89,1.08-2-2-.31-1.44-.04-2.99,1-4,.94-3.78,2.75-9.11,4-12.99,1.96,1.01.66,3.32.29,4.78-1.21,4.8-2.24,9.37-3.29,14.2Z"/>
  <path class="cls-78" d="M442,22.87c.44,2.74-.56,3.07-3,1l-1.09,2.31c-3.24.52-6.54.74-9.91.69-.27.88-.6.87-1,0h-1c.6-.77,3.04-.93,3-2,4.21.15,9.51-3.59,13-2Z"/>
  <path class="cls-137" d="M425,26.87c-2.05,1.42-5.45,3.5-8,3-.83,1.2-2.65,1.53-4,1-.83,1.07-3.09,2.17-4,1-2.52-1.01,1.09-1.43,1.78-1.7,3.89-1.51,10.3-5.38,14.22-3.29Z"/>
  <path class="cls-206" d="M278,166.73c-.95,3.52-1.01,6.81-2.52,11.02-.57,1.58.23,3.55-2.48,2.97.99-3.66,2.23-7.27,3-10.99,1.07.04,1.23-2.4,2-3Z"/>
  <path class="cls-197" d="M335,77.82c0,.66-.34.99-1,1-3.2,2.89-6.41,5.48-9,8.99-.3.52-.64.5-1,0,2.58-3.64,3.93-5.7,7.48-9.01.81-.75,2.67-3.34,3.52-.98Z"/>
  <path class="cls-17" d="M394,38.85c.04.06,1.16-.14,1,.98l-8,4.01-5.45,1.97-.55-.97c.2-1.11.93-1.43,2-1,3.56-1.81,7.11-3.94,11-5Z"/>
  <path class="cls-166" d="M252,184.71c-.65,3-2.49,7.14-3,9.99h-1c-.98-3.5.61-8.5,2-11.99l2,2Z"/>
  <path class="cls-39" d="M454,44.85h-1c-.8-.58-.67-1.28,0-2-1.28-3.55-.61-5.21,2-5,.39-1.63.59-3.33,1-5,2.86,3.27-1.27,8.67-2,11.99Z"/>
  <path class="cls-156" d="M425,26.87c.32-.07.69.08,1,0s.69.08,1,0c-.27,3.24-2.94,4.57-8,4-.1.91-.45.85-1,0-.89,0-1.28-.03-1-1,2.59-.84,4.07-2.11,8-3Z"/>
  <path class="cls-146" d="M413,31.86c.6,2.56-1.73,3.56-7,3,.73,2.78-2.84,3.65-4,1h-1c2.35-1.23,5.62-3.12,8-4,1-.37,2.48-.43,4-1,.87.28.86.62,0,1Z"/>
  <path class="cls-236" d="M369,51.84c-.66.41-.9.94-1,1-.81,1-2.14,2-4,3-.66.33-1.37.62-2,1-4.99.29,2.72-4.2,3.08-4.42.94-.58,3.32-2.65,3.92-.58Z"/>
  <path class="cls-202" d="M292,134.76c-.26,1.68-3.45,10.49-4.01,10.99-.67.59-.92-1.01-.99-1v-2c1.73-.3,2.92-6.87,5-7.99Z"/>
  <path class="cls-134" d="M299,121.77c.12-.18-.21-.99.27-1.72.84-1.29,4.5-4.71,5.73-6.27-.97,2.99-2.54,7.6-6,7.99Z"/>
  <path class="cls-270" d="M319,94.8c-.3-1.65,1.36-3.71,3-4,.8-1.12,1.39-2.14,2-3h1c-1.65,2.24-.46,6.02-6,6.99Z"/>
  <path class="cls-268" d="M383,43.85c-.66.34-1.34.66-2,1-1.24.64-2.18,1.58-3,2-.22,1.25-2.15,2.03-3,1-2.21-1.44,5.3-4.11,7.45-4.95l.55.95Z"/>
  <path class="cls-186" d="M344,69.82c-1.98,1.51-2.48,2.03-4,4,.14,1.16-1.12,2.02-2,1l-.98-.49c2.89-2.15,3.8-6.1,6.98-4.5Z"/>
  <path class="cls-212" d="M334,78.82c.35-.31.65-.69,1-1,1.32-1.15,1.95-1.98,3-3,.42-.41,1.44-.61,2-1-.03.04.73.55.43.99-1.39,2.06-3.74,4.36-6.43,4Z"/>
  <path class="cls-162" d="M322,90.8c-.97,1.36-2.09,2.6-3,4-.59.1-1.35.79-2,1,1.28-2.16,1.86-4.35,4.5-5.98l.5.98Z"/>
  <path class="cls-167" d="M295,127.77c-1.15,1.89-1.93,4.06-3,5.99.02-.13-1.09-.26-.29-2.63.34-1,2.64-5.7,3.29-3.36Z"/>
  <path class="cls-79" d="M400,35.86c.07,1.48-1.77,1.55-3,1-.99.33-1.9.97-3,1-.04-.06-1.16.13-1-.98,2.52-.1,4.89-3.37,7-1.02Z"/>
  <path class="cls-124" d="M349,66.83c-2.04,2.44-2.08,4.46-5,3,1.91-1.45,3.17-1.93,5-3Z"/>
  <path class="cls-35" d="M378,46.85l.98.5c-1.14,1.3-2.71,2.22-4.43,2.46l-.55-.96c.36-.3.66-.67,1-1,.82-.7,2.25-.61,3-1Z"/>
  <path class="cls-60" d="M310,105.79c1.18-1.55,2.08-3.18,4-4-.93,1.51-.53,4.04-4,4Z"/>
  <path class="cls-1" d="M352,63.83l.98.49c-.87,1.95-2.86,1.85-3.98,2.5.51-.61.53-2.14,1.25-2.75.58-.5,1.56-.11,1.75-.25Z"/>
  <path class="cls-208" d="M401,35.86c.32-.06.67.05,1,0,2.11,2.12.69,3.03-2,2-.84-.28-2.51.47-3-1,.9-.3,2.22-.82,3-1,.32-.07.68.06,1,0Z"/>
  <path class="cls-98" d="M384,262.64c8.02,1.16,16.02,2.83,24,5,1.73-.38,4.9.65,6,2,1.91-2.49,5.56.1,5,3,3.75,2.61,8.4,4.85,13,5.99,1.58.01,3.54.21,4,2,2.51-1.83,3.2-.97,3,2,2.15-.12,4.04,1.08,5,3,7.47,1.61,23.85,11.1,27.69,17.26.53.85.94,1.78,1.31,2.72,1.75-.28,3.5,1.36,4,3,2.56-1.52,2.97-.68,2,2,1.53-.44,3.73,1.5,4,3,2.54-1.64,3.88.19,3,3-1.7,4.62-5.28,7.88-10.72,9.79,5.13,2.28,7.12,13.72,2.72,16.19-.85,3.4-3.59,6.78-5.59,9.91-16.82,26.31-36.59,52.22-54.41,78.01-2.12,1.12-2.95-.08-2.44-2.34l8.9-12.97c-2.31-.1-4.6-.13-6.89-.1-4.5-6.53-6.82-6.5-10.63,1.24-1.7,2.61-4.99,6.62-5.93,2.18-1.7-1.17-1.12-2.09,1-2,1.63-3.77,3.96-7.44,7-10.99l.2-3.31c9.82-13.05,19.02-26.55,27.6-40.49l3.2-1.16c-.29-1.57.49-2.55,2-3-1.97-2.39,1.28-6.08,4-5-.13-1.74,1.34-4.39,3-5-.24-4.64,2.55-8.54,7-9.99,1.35-3.58,3.35-6.91,6-9.99-.7-1.2-1.36-2.53-2-4-2.32,1.78-6.35-2.53-5-5-2.61,1.52-9.4-3.01-9-5.99-1.24.63-1.7.25-1-1-1.35-1.44-6.27-5.41-10-5.99-1.91,2.14-4.4.91-4-2-2.12,2.25-8.79-2.11-8-5-.77-3.36-7.91-5.62-10-2,.92.41.58,1.07-1,2-.86,1.67-1.86,2.67-3,3,1.69,2.15-.44,5.09-3,4-4.52-.87-6.51-2.52-5.96-4.96,3.33-4.49-.29-11.13-5.45-11.37-.93,3.2-3.71,9.36-6.59,5.34.36-.64.61-1.37,1-2,1.95-3.31,1.8-5.32-.44-6.01l.44-.98c-6.24-2.21-13.08-3.51-20.53-3.9l-1.47-1.1c-.4.33-.4.66,0,1,.87.28.86.62,0,1-7.44.66-14.77.66-22,0-7.42-.68-15.82,1.98-22,5-5.5,2.07-14.91,6.91-20,9.99-2.98-1.41-2.05-3.18,2.79-5.3.27-5.84-1.76-9.96-6.07-12.36-4.62,3.13-6.86,3.02-6.71-.32.36-.24.62-.76,1-1,.49-2.74,1.49-3.4,3-2,1.05-1.91,3.84-3.11,6-3-.16-2.19,2.18-3.53,7-4,5.63-3.2,13.58-5.91,20-5.99,17.95-2.95,35.95-3.29,54-1Z"/>
  <path class="cls-40" d="M486,316.58c2.57-1.83,6.34,2.3,5,5,2.06.46,3.33,2.97,4,5,3.69-.31,7.3,4.54,6,7.99l1,3c1.25,3.8,2.92,7.46,5,10.99,6.1,10.05,9.08,22.3,11,33.97,2.98.81,3.87,5.51,1,6.99-.79,1.56-.79,3.42,0,5,2.43,15.14,2.05,30.86-1,45.96l-4.52,18.1c-1.01,5.24,3.83,5.87,14.52,1.88,2.89-1.18,8.47-3.26,11-2,3.49-1.19,5.64-1.29,5.01,2.97,8.35-.7,6.93,5.36,1.47,9.05,2.57,1.26,3.34,2.83.52,3.96-4.11,1.81-8.11,3.48-12,5-1.24.34-2.89,1.46-5,2-11.31,3.17-21.31,1.84-30-4-.35-.31-.69-.65-1-1-5.15-6.66-7.34-17.08-2-23.98,1.21-8.63,2.88-17.29,5-25.97.04-1-.03-2,0-3v-2c.28-.87.62-.86,1,0,.78-4.85.9-11.04,0-14.99-.28.87-.62.86-1,0-1.25-2.95-1.69-6.77-1-9.99-.23-2.02-.7-3.98-1-5.99.21-1.04.31-2.1.19-3.16-.29-2.52-1.74-11.85-2.19-7.83h-1c-2.16-5.65-3.83-11.31-5-16.98-2.58-6.38-6.83-16.77-13-19.98.42-1.66.05-9.46-.45-11.02-.89-2.79-4.95-3.53-4.54-5.45.49-2.32,8.45-4.22,9.56-6.49.72-1.46-2.22-3.17-1.56-5.02l4.99,2Z"/>
  <path class="cls-120" d="M318,537.37c1.47-.86,3.13-1.85,5-2.99-.31-5.39,5.69-7.18,8.07-2.33-2.09,5.87-1.34,12.1,4.41,4.71,2.37-1.06,7.74-.2,6.53,2.61-21.68,31.17-42.26,63.21-64.19,94.22-9.35,13.22-23.94,36.09-34.81,46.64-.04.04-.52-.85-.99-.49-.64.49-4.02,6.28-5,5.49-2.05-2.64.78-9.89.48-10.99-1.86-6.85-5.56-1.98-5.99-2.01-.77-.05-1.08-2.27-1.67-2.79-.12-.1-2.19,1.43-2.82-1.19-1.48-2.7,0-4.64,3-4,1.07-.43,4.03-3.14,4-5.99.02-1.36.69-2.69,2-4-1.51-3.01-.09-4.31,3-4,1.91-7.24,7.57-15.22,14-18.98.12-2.47,2.13-5.33,4-6.99,2.23-4.35,5.31-8.84,9-11.99-.9-3.65,1.29-6.59,5-6.99,1.11-3.4,3.11-6.73,6-9.99-1.06-3.39,2.49-7.71,6-6.99,1.98-1.33,3.31-3.33,4-5.99-1.05-3.05-.19-4.49,3-5,.54-.98,1.2-1.65,2-2,2.35-2.09,5.49-5.96,6-8.99.64-1.99,1.64-3.99,3-5.99-1.05-2.56-.54-3.07,2-2,1.86.31,2.81-2.26,3-4,.93-6.51,6.12-14.03,12-16.98Z"/>
  <path class="cls-16" d="M711,346.55c.44,1.85-1.32,5.06-3,5.99-18.69,33.68-40.99,57.63-72,79.92-5.54,2.37-11.24,3.84-17.17,4.8-1.17,4.83-2.42,6.21-7.35,4.27-4.08,5.7-14.8-4.86-14.14-7.07.74-2.47,6.63-3.26,9.06-3.35.98-3.18,3.9-5.65,8.76-7.4l.85-1.25c-1.63-2.54.14-3.93,3-3,.59-1.71,3.16-2.94,5-3,1.09-4.77,6.13-9.01,11-8.99,1.03-2.02,2.67-3.81,5-4-1.07-2.72.92-3.96,3-2,2.75-2.01,5.08-4.34,7-6.99-1.23-2.7.31-4.23,3-3,1.87-.97,3.21-2.64,4-5-.77-1.33.59-2.67,2-3l-.27-3.01c4.93-5.64,9.41-11.59,13.43-17.87l2.83-1.1c.86-1.87,1.86-3.2,3-4-.67-4.26,2.82-9.05,7-9.99,1.72-.6,2.15-2.32,2-4-.39-1.83,1.14-4.82,3-4,4.19-5.76,7.15-12.33,9.85-18.88l1.15-.1c7.73,4.62,7.73,8.97,6.19,17.64,2.71,2.74,3.98,5.52,3.81,8.34Z"/>
  <path class="cls-110" d="M616,422.48c-.05.05,1.06.41.07,1.4-1.69,1.7-6.69,3.24-7.6,4.62-.65.99.94,3.44-1.47,4.5s-5.31-.97-8,.48c-.48.61,5.34,6.83,6.26,7.28,2.83,1.39,3.79-1.08,6.19-1.18,1.15-.05,3.97,1.41,4.54.89.19-.17.28-4.27,1.17-4.85.8-.52,6.62-.48,8.39-2.1l10.45-1.05c-17.69,12.72-36.78,25.15-57.02,33.45-2.07.85-14.98,4.55-14.98,5.51-2.61,1.51-5.94,1.83-9,2-3.13.4-6.13.73-9,1,.92-3.64-4.43-.32-3.02-4.5.13-.4,5.91-3.82,5.02-6.49-1.23-.23-5.7.31-6,0-.88-.91,2.2-6.35-2.99-5,1.82-2.18,4.82-3.52,9-4,4.6-1.74,8.93-3.41,13-5-.17-1.44,2.51-2.12,4-2,7.03-1.51,14.57-4.3,21-7.99.03-2.4,6.27-4.79,9-5,4.46-6.09,13.49-11.6,21-11.99Z"/>
  <path class="cls-10" d="M401,418.48c.06-.08.47,1.14,1.96-.4,3.91-4.05,6.81-11.57,11.03-15.59.63,1.66-2.95,4.96-1.99,5.98.13.13,2.23.06,3.54.95,1.69,1.15,2.26,3.74,2.6,3.98.39.27,6.38-1.81,8.86,1.1.5.7-7.18,10.68-8.24,12.25-.82,1.21-2.3,2.27-.76,3.71-10.76,15.57-21.23,31.4-32,46.95l-2.13-.47-2.14-10.65c-1.87,1.5-3.97,1.46-6.23,1.09-2.53,3.28-6.77.47-6.49-2.96.47-6.02,4.56-12.42,10-14.99.25-2.35,1.8-4.88,4-5.99-1.26-2.88-.11-4.36,3-4,.22-2.33,1.86-4.98,4-5.99-.87-3.65,1.22-6.71,5-6.99-.59-1.21.7-2.94,2-3-.56-3.32.64-4.8,4-5Z"/>
  <path class="cls-104" d="M356,485.42c2.17.31,2.11,1.33,1.4,3.06,3.4,3.99,7.93,6.7,12.61,8.98-1.57,2.58-2.91,5.23-4.01,7.95-7.89,11.38-16.09,22.6-24,33.97-.55-2.25-2.28,1.54-2.99.99-.16-.12.49-3.15-2.49-1.95-1.04.42-3.01,6.35-7.52,2.48-2.8-2.4.75-8.82,0-9.51h-4s0,5.99,0,5.99c-4.32-2.41-3.51,2.3-7,0l-.51-2.77c9.2-15.54,20.22-31.59,31.82-45.37l2.69.19c.96-2.29,2.29-3.62,4-4Z"/>
  <path class="cls-259" d="M369,464.44c2.45.04,5.29,6.21,4.5.99,1.73-.33,4.52.47,5.95.07s-1.03-4.32,3.53-3.06l3.02,14.99c-6.53,9.42-13.48,18.57-20,27.97-2.31-1.99,3.64-6.38,3-6.98-2.96.77-13.28-7.72-13.59-9.49-.15-.83.65-2.36.59-3.51-1.15.56-1.48-.1-1-2-.45-.31-.44-.64,0-1-1.78-1.75-.41-4.32,2-4-1.37-2.7,1.59-4.64,4-3,2.24-1.06,3.63-3.51,4-5.99-.29-1.46.54-2.81,2-3-1.36-2.65-.63-3.16,2-2Z"/>
  <path class="cls-254" d="M529,481.42c-2.24.57-5.19,1.62-7,2-2.23,1.29-6.36,1.36-9,1-3.16-2.01-7.42-2.03-10.71-3.79-2.12-1.13-2.19-2.23-3.29-3.2,4.38,1.85,8.74,4.53,13.63,4.92,5.66.44,11.29-3.03,16.37-.92Z"/>
  <path class="cls-52" d="M496,452.45c-.39,1.75-1.64,3.41-1.91,5.58-.93,7.35.71,12.03,3.91,18.4-5.88-6.49-6.9-11.28-5-19.98-.11-1.9.05-4.92,2-5,.69-.99,1.03-.65,1,1Z"/>
  <path class="cls-168" d="M496,452.45l-1-1c-1.38-1.38.17-5.11,1-6.99,1.51-5.94,3.35-12.06,5-17.98-.36,9.39-2.94,16.65-5,25.97Z"/>
  <path class="cls-205" d="M555,473.43c-7.01,1.96-13.95,4.06-21,5.99-2.53-1,1.15-1.49,1.81-1.68,3.45-.98,6.8-2.36,10.19-3.32,4.33-1.23,4.62-2.1,9-1Z"/>
  <path class="cls-129" d="M501,406.5c.96,4.78.86,10.19,0,14.99,0,.67.02,1.33,0,2-1.64-7.08-.95-14.36-1.72-21.78-.17-1.6-1.15-4.15.72-5.19.39,3.37.79,6.59,1,9.99Z"/>
  <path class="cls-195" d="M708,352.55c1.01-1.81,2.05-4.09,3-5.99-1.13-2.6-1.54-5.33,2-5,1.8-.8,2.18-2.47,3-4,1.9,1.3-1.09,5.32-1.83,6.66-1.17,2.14-2.47,4.19-3.64,6.35-.27.49-1.75,4.19-2.53,1.97Z"/>
  <path class="cls-199" d="M496,379.52l-.99,1c-.22-4.85-2.5-9.02-4.05-13.45-.46-1.3-1.83-3.68.04-4.53,2.19,5.43,4.14,11.14,5,16.98Z"/>
  <path class="cls-11" d="M496,444.46c-.49,1.95-.48,4.81-1,6.99-.26,1.09-1.53,2.84-2,5-2.07-3.6,2.33-8.59,1.96-12.55l1.04.56Z"/>
  <path class="cls-121" d="M522,483.42l.56,1.04-11.06.96c-1.61-1.38.79-.9,1.5-1,2.73-.4,6.51-.47,9-1Z"/>
  <path class="cls-205" d="M499,390.51c-.55-3.69-1.51-7.29-2-10.99l1-1.49c-.45,3.98,3.75,8.89,1,12.48Z"/>
  <path class="cls-231" d="M564,471.43c0,.07,1.17-.15,1,.99-4.33.45-5.77,2.07-10,1.01,2.94-.82,5.95-1.64,9-2Z"/>
  <path class="cls-10" d="M388,294.6c2.43.86,5.07-5.66,5.01-7.99,8.01.28,13.82,9.7,7.99,15.98,4.67.13,4.59-1.41,5,3.01,2.01,1.72-.2,5.7-2.42,6.51-1.38,5.85-3.9,8.67-7.58,8.48-1.37.68-2.37,2.01-3,4,2.41,2.17-2.05,9.08-5,7.99-1.85.88-2.92,3.06-3,5,1.94,2.2-.41,5.38-3,4-.61-.11-2.55,1.19-2,3,.95,2.96.11,4.08-3,4-.62-.13-2.54,1.19-2,3,2.12,2.35-1.02,6.13-4,5-.97.45-1.97,2.12-3,5,.22,1.67-1.3,3.88-3,4-1.86,1.32-5.24,5.49-6,8.99,1.38,2.52.87,3.3-2,3-.65,2.23-1.98,4.56-4,6.99,1.71,2.42-.4,4.28-3,3-2.26,1.15-6.93,7.69-8,11.99,1.5,3.23-2.46,9.17-6,8.99.58,1.24-.82,3.21-2,4-.09,1.27-.85,2.64-2,3,1.18,2.5.48,3.04-2,2-.45,1.64-1.18,3.59-3,4-1.56,7.75-8.37,16.59-15,20.98-.5,3.67-3.47,7.19-6,9.99l-3,5c1.73,2.65-7.52,14.22-9.59,15.42l-2.41-.43-1.81,1.02c-2.21-2.05-4.83-3.83-7.89-5.35-3.77-8.42-6.58-4.75-10.47,1.47.3,3.87-6.12,7.7-5.84,2.86,41.25-59.09,82.01-118.56,123-177.83Z"/>
  <path class="cls-194" d="M265,472.43c.07,1.65,3.56-1.06,3.67-1.22.22-.34-.27-1.63.61-2.87.95-1.33,5.33-7.58,6.19-7.64.28-.02,5.05,1.82,5.26,2,1.02.84,1.93,6.27,4.74,5.73,3-.57-.69-3.79-1.04-4.94-2.58-8.39,4.57-6.46,5.36-1.37.26,1.68-2.66,3.99-.79,8.32l1.99,1.99c.28.97-.05,1.31-1,1-2.8,3.15-4.46,6.03-6,9.99,1.83,2.57-1.19,6.53-4,5-1.4,1.41-2.07,2.74-2,4,1.85,2.72-.76,6.54-4,5.99-.2,2.87-2.62,5.37-5,6.99,1.1,3.36-1.45,7-5,6.99-.45,2.57-1.75,4.64-4,5.99.28,5.07-4.39,11.93-9,13.99-1.55,3.03-3.55,5.02-6,5.99,2.67,1.31.73,4.45-2,4,.14,1.23-.53,2.56-2,4,2.43,1.48-6.69,12.16-7.43,12.38-.91.27-1.77.1-2.57-.39l-3,4c3.24,1.1,2.46,3.47-.73,4.7-2.59,5.21-5.86,10-9.81,14.35l-2.45-.07c-2.01.87-2.44,2.07-2,3,.6,2.46-.47,3.89-3,4-1.36,3.07-3.36,6.07-6,8.99,1.99,2.18-1.61,5.45-4,4-1.82.28-2.31-2.28-2.72.25-1.29,7.8-3.04,2.9-4.25,3.74-1.31.91-1.06,10.05-5.03,11,1.37-2.55-2.54-3.18-3,.99.5.41,2.85-.71,3-.99l-6.98,10.98c.47-2.92-3.39-1.51-4.02-3.97,2.43,1.73,4.95-4.21,4.58-5.02-1.02-2.23-13.45-5.82-10.57-10.98.07-.13,2.84-.07,2.92.06.37.56-.69,3.99,1.56,2.94,2.6-1.22,1.83-2.78.18-4.01-2.26-1.67,5.28-2.54,6.34-1.98,1.04-4.03-5.34,0-7-2.01,4.11-6.5,6.34-11.77,13.39-5.02,4.04-4.04,7.27-13.63-.39-15.94,25.51-36.39,51.55-72.45,77-108.89Z"/>
  <path class="cls-259" d="M245,246.65c4.84-.33,5.09,6.47,7.11,7.9,1.48,1.05,5.09-2.91,5.39-2.89.33.02,3.37,4.4,4.49,4.98.56,6.94.89,13.93,1,20.98.57,5.61.95,11.73,3,16.98.34,2.23,1.01,3.89,2,5-.43-2.64.12-2.78,2-1,1.02-.77,1.38-1.46,2-2,.89-1.58,2.22-2.91,4-4,2.07-1.43,2.77-1.83,5-3,1.74-.99,2.74-2.33,3-4,.44-.32,1.46-.82,2-1,1.46-.11,2.46-.77,3-2-.91-.97-.35-1.35,1-1,.97-.7,2.01-1.33,3-2,2.09,2.25,4.55-1.92,7.12-1.55.35.05,5.54,3.89,5.72,4.19.54.87,2.13,10.11,1.98,10.76-.49,2.19-6.08,1.89-4.83,4.58-3.35,2.03-22.38,16.65-23,18.98-.28.87-.62.86-1,0-10.44,3.63-18.76,2.67-27-5-2.95-4.11-5.1-11-6-15.98-.83-.96-.61-2.98,0-4-1.67-6.4-2.89-13.41-2-19.98,1.92-7.79.89-16.85,1-24.98Z"/>
  <path class="cls-140" d="M345,282.62c6.71-.41,15.26-.34,22,0,6.93-1.42,15.23.7,22,3,.79,2.41,4.07.48,0,6.99l1-4.98c-19.63-4.97-38.53-5.79-58.22-.72-1.46.38-3.77,1.66-4.78-.29,4.92-3.28,11.97-4.5,18-4Z"/>
  <path class="cls-229" d="M244,222.67c.21,5.35-.91,9.68-1.04,14.44-.24,8.51-.31,18.04.04,26.52l-1,.52c-.05-15.2-.27-30.35,1.01-45.47,1.76-.2.94,2.81.99,3.99Z"/>
  <path class="cls-256" d="M279,316.58c-3.08,3.77-11.34,4.28-16,3,.08-.69-7.82-3.56-11-7.99l10.56,5.93c3.27.1,6.58.24,9.85-.01,2.39-.19,4.92-2.72,6.59-.92Z"/>
  <path class="cls-239" d="M251,178.72c-.33,1.32-.69,2.69-1,4-.85,3.62-1.3,8.19-2,11.99-.37,1.98-.62,4.02-1,5.99-2.35-6.91,2.32-15.44,2.96-22.54l1.04.56Z"/>
  <path class="cls-85" d="M345,282.62c-6.18.38-12.12,2.06-18,4-1.29.42-2.74.52-4,1-2.51-.96,1.1-1.5,1.76-1.72,5.76-1.93,14.43-5.64,20.24-3.27Z"/>
  <path class="cls-121" d="M244,271.63c.46,6.66,1.09,13.49,2,19.98-.28.87-.62.86-1,0-.54-4.5-1.66-9.68-2.04-14.44-.15-1.85-.56-5.25,1.04-6.54.02.33-.02.67,0,1Z"/>
  <path class="cls-97" d="M280,316.58c-.02.07.89.48,1,.92-6.25,3.08-12.07,3.58-19.01,3.06.1-.49,1-.83,1.01-.98,5.76.32,11.01.16,16-3h1Z"/>
  <path class="cls-31" d="M246,203.69c.99,2.78-.86,6.28-1,7.99-.28.87-.62.86-1,0,.24-2.54,1.88-5.84,1.02-9,.48.11.83,1,.98,1.01Z"/>
  <path class="cls-30" d="M245,217.68c-1.53-.97-1.16-4.24-1-5.99h1c-.16,1.96.04,4.01,0,5.99Z"/>
  <path class="cls-20" d="M246,295.6c-1.17,5.24-.66-1.18-1-4h1c.18,1.25-.22,2.8,0,4Z"/>
  <path class="cls-49" d="M449,59.83c-.29,11.71.38,23.36,2,34.97.4,3.55,1.07,6.22,2,7.99,4.19,11.14,8.86,22.13,14,32.97,2.87,3.43,4.87,7.09,6,10.99,3.06,4.93,6.42,9.43,10,13.99,1.49.16,2.08,1.6,2,3,1.15,3.41,10.76,13.38,16,15.98,7.91,6.89,17.28,14.17,26,19.98.91,1.88,3.03,2.88,5,3,.98.3,2.03.66,3,1,2.97,1.45,5.63,3.11,8,5,.84.44,1.68,1.35,3,2,3.41.21,9.2,2.44,11,5,3.5,1.8,7.5,3.13,12,4,.33-.75.67-.75,1,0,4.47.39,9.72,1.82,14,3-.79,3.81,3.55.94,6.55.89,2.26-.04,2.82.98,3.45,1.11,10.04.98,19.96,1.69,30.06,1.87,5.49.1,12.52-.14,16.94-2.87.21-.69.55-.65,1,0,5.11-.61,9.77-1.61,14-3-2.73-1.65,7.43-3.98,10-4,.77-.35,2.9-1.34,3-2,.71-1.64,4.25-2.65,6-2,3.43-1.28,3.55,2.53,0,2l-.72,1.98c1.29,1.3,1.53,3.3.72,6.01,2.57,8.05,2.26,18.71,1.22,27.39-9.1,76.07-67.92,150.62-145.47,163.11l-1.75-1.68c-1.3.46-2.56.49-3.78.09-1.2-13.13-3.64-26.22-6.33-39.28l1.11-3.77-2.91-3.11c-18.89-74.13-117.22-140.46-191.24-105.67l-3.85-.12-2.97,1.81c-8.94,5.16-11.95,4.23-9.03-2.81-1.52-11.48-1.86-23.14-1-34.97.61-1.51.13-2.77-1.23-3.82,6.62-78.45,65.42-142.29,139.69-162.09l1.54,2.07Z"/>
  <path class="cls-201" d="M594,117.78c.49,1.8-.23,2.25-1.83,2.47l-42.36,64.57c.8,1.12.25,1.91-.8,2.89.59.3.58.63,0,1-7.52-4.27-14.06-9.94-21-14.99l-1.16-1.87c14.94-22.71,29.88-45.43,44.83-68.16l2.33.1c6.32,4.02,14.33,9.25,20,13.99Z"/>
  <path class="cls-191" d="M570,100.79c.99.52,2.66,2.14,4,3l-46,69.93c-.57-.41-1.4-.6-2-1-1.24.27-2.58-.4-4-2-.35-.31-.62-.7-1-1-1.27-.75-1.6-1.41-1-2-6-4.89-7-9.22-3-12.99.54-1.59.89-3.32,1.01-5l1.97,1.01c.21-1.98,1.13-4.49,2.14-6.16,1.37-2.28,4.24-5.23,5.89-7.83.64-1.01,1.35-1.99,2-3-.34-1.56.34-3.06,2-3,1.57-.54,2.25-2.41,2-4-.49-1.89,1.41-3.84,3-5,2.17-3.27,4.86-7.08,7-9.99l8-8.99c.79-.58,1.06-2.27,3-3,2.3-1.19,4.97-1.85,8-2,1.62-1.02,5.92,1.17,7,3Z"/>
  <path class="cls-135" d="M594,117.78c2.09,1.74,4.79,3.44,6,5.99.65,4.42.36,8.62,0,12.99-1.85,5.53-7.29,10.47-10.32,14.98-3.42,5.09-6.88,10.81-10.68,15.99-1.29.14-2.52,1.85-2,3-1.97,2.65-3.94,5.42-6,7.99-2.01,1.26-3.68,3.26-5,5.99-1.52,3.21-3.52,5.21-6,5.99-2.83,2.34-8.56-.68-11-3l-1.53-2.98,43.53-66.35,3-.6Z"/>
  <path class="cls-178" d="M663,196.7c2.21.76-1.48,2.28-1.97,2.53-15.72,8.03-31.51,8.94-49.03,7.46-5.78-.49-20.11-3.45-25-5.99,1.62-1.63,7.74-.26,10,1,4.98,1.04,8.19,2.52,14,3,9.94-.39,20.13-.51,30,0,6.75-1.05,15.87-4.87,22-7.99Z"/>
  <path class="cls-91" d="M641,223.67c.72,2.94-4.82,2.92-6.46,3.04-12.95.91-27.93.56-40.54-2.04h6c2.45-.85,5.6-.99,8,0,10.24.83,20.58.49,31-1,.52-.84,1.25-.63,2,0Z"/>
  <path class="cls-66" d="M570,218.68c.87.28.86.62,0,1-.32-.06-.68.07-1,0-4.36-.87-8.36-2.2-12-4-3.23-1.26-7.81-3.43-11-5,.95-2.09,3.09-.35,4.37.13,6.26,2.34,13.35,6.03,19.63,7.86Z"/>
  <path class="cls-5" d="M500,178.72c.35.31.65.69,1,1-.85,2.36-2.71-.24-3.52-.98-2-1.83-13.72-13.14-13.48-14.49.08-.45.58-.61.99-.51l15,14.99Z"/>
  <path class="cls-180" d="M500,177.72v1c-5.3-4.73-10.43-9.52-15-14.99.28-.87.62-.86,1,0,3.44,3.83,10.17,10.56,14,13.99Z"/>
  <path class="cls-6" d="M586,195.7c1.23,4.69,7.64,3.57,11.56,4.95l-.56,1.04c-2.85-.59-6.98-.67-10-1-.98-.51-1.73-1.27-3-1.01-.26-1.71,1.13-2.69,2-3.98Z"/>
  <path class="cls-21" d="M570,218.68c5.33,1.56,12.39,2.68,18,3.01l-4,.99c-4.89.48-9.51-2.12-14-3v-1Z"/>
  <path class="cls-184" d="M560,190.71c1.52-1.21,2.05-.64,1,1-4.87,2.66-7.73-.57-12-3v-1c4.51,2.27,6.19,2.51,11,3Z"/>
  <path class="cls-264" d="M537,121.77c-1.05,1.58-1.94,3.37-3,5,.31,1.51-.5,3.59-2,4-.65,1-1.34,1.97-2,3-2.01-.73.25-3.66.83-4.67,1-1.74,3.96-7.68,6.17-7.32Z"/>
  <path class="cls-58" d="M570,100.79c-1.78-.93-5.21-2.7-7-3h-1l-4-1.99c3.7-.45,6.81.98,10.04,2.44.47.21,4.15,1.83,1.95,2.55Z"/>
  <path class="cls-225" d="M552,102.79c-.57,2.26-6.05,9.31-8,8.99-.23-2.11,2.03-5.29,4-5.99,1.66-2.01,2.81-2.12,4-3Z"/>
  <path class="cls-72" d="M600,136.76c-1.94-1.22.1-4.25.1-6.49s-2.04-5.28-.1-6.49c1.77,3.75,1.29,9.12,0,12.99Z"/>
  <path class="cls-62" d="M543,208.69c-2.73-1.44-6.37-2.4-8-5,3.17,1.1,6.51,2.14,8.98,4.5l-.98.5Z"/>
  <path class="cls-173" d="M561,191.7c-.38-.18-.82-.98-1-1,2.15-1.75,4.11-3.97,6-5.99-1.57,2.68-1.6,5.13-5,6.99Z"/>
  <path class="cls-247" d="M571,178.72c-1.92,2.39-2.76,3.59-5,5.99,1.3-2.22,1.91-5.31,4.5-6.97l.5.98Z"/>
  <path class="cls-127" d="M548,105.79c-1.44,1.74-2.62,4.13-4,5.99-2.92-.47,2.12-6.01,3.51-6.98l.49.98Z"/>
  <path class="cls-242" d="M562,97.8c.33.03.68-.05,1,0-2.16,1.78-5.77,1.16-8,2,.88-2.67,4.58-2.19,7-2Z"/>
  <path class="cls-217" d="M609,223.67c1.32,1.29.77,1.53-1,1-2.64-.13-5.35,0-8,0,.1-.47.55-.96,1-1,2.35-.22,5.61-.15,8,0Z"/>
  <path class="cls-8" d="M532,202.69c-.09-.03-.51,1.02-1.86.53-1.13-.41-4.57-2.53-3.14-3.52,1.53,1.02,3.54,1.71,5,3Z"/>
  <path class="cls-179" d="M526,172.72c-.42.89-1.46.71-2,1-.73-.81-1.28-2.35-2-3,1.64.11,2.73,1.16,4,2Z"/>
  <path class="cls-128" d="M579,167.73c-.71.96-1.29,2.04-2,3l-1.01-.52c.07-1.59,1.47-2.44,2.51-3.46l.49.98Z"/>
  <path class="cls-143" d="M706,191.7c1.78-.35,2.85.99,3.21,4.01l2.79,18.97c2.94,23.58.94,48-5,70.93-.13,2.26-.13,4.59,0,6.99.79.92.29,2.9-1,3-2.07,6.34-3.73,12.66-5,18.98-1.58,8.85-5.24,17.17-11,24.98-2.16,1.72-1.8,2.16-3,4-2.18,1.96-3.17-.14-2.53-2.6l5.2-9-1.32-.47c-7.68,5.21-10.85-.4-13.91-6.49,1.2-4.75-.31-4.55-4.51.58-2.87-1.18-9.72,10.36-9.67,11.87,5.79,7.17-3.62,11.33-8.25,7.1l-.28-3.13c19.73-33.24,35.07-74.92,28.98-113.91l1.31-2.84c-1.99.08-3.31-1.8-3.96-5.63-3.02.79-5.16-2.28-3.04-4.36.27-.2.37-1.24.98-1.5l-.98-.49c-.06-1.07.94-1.74,3-2,1.69.17,3.38-.26,4-2,8.21-5.08,15.3-12.72,24-16.98Z"/>
  <path class="cls-234" d="M723,314.58c-3.31,9.74-5.62,17.43-10,26.97-.7,1.53-1.12,3.24-2,5-.97-1.58-5.57-6.53-5.76-7.61-.31-1.73,1.25-9.23.52-11.75-.57-1.96-5.88-2.63-4.76-6.61.23-6.12,3.52-14.03,6-19.98-.44-2.19-.79-5.36,1-6.99,3.4,5.93,2.93-1.99,4.5-1.98,3.57,3.45,8.12,7.2,8.47,12.59.24,3.69-2.37,6.97,2.03,10.37Z"/>
  <path class="cls-170" d="M708,293.61c-.51,2.17-.5,5.1-1,6.99-.79,1.13-1.12.8-1-1-1.45-.17-1-3.09,0-4,.19-.75.69-1.68,1-3-.5-2.24-.31-5.26,1-6.99,3.87-23.62,7.49-48.37,4-71.93l-2.1-14.67c-1.24-3.18-1.54-5.95-.9-8.31.05-.01.7-1.96,1-.49,6.14,26.47,7.08,56.72,2.69,83.59-1.11,6.77-3.13,13.18-4.69,19.79Z"/>
  <path class="cls-101" d="M709,190.71c1.81,7.83,2.64,14.99,3,22.98v1c-3.22-6.85-.84-17.27-6-22.98,1.04-.51,1.92-.7,3-1Z"/>
  <path class="cls-246" d="M638,223.67h1c-8.49,2.93-19.51,2.38-28.58,2.04-1.3-.05-2.27-1.03-2.42-1.04l1-1c10.9.69,18.03.6,29,0Z"/>
  <path class="cls-87" d="M666,216.68c-2.8,1.27-6.44,2.37-9.49,3.02-.49.2-.56.5-.51.98-3.72,1.66-8.94,2.61-13,2h-1c6.5-1.94,12.99-4.04,19.48-6.02,1.32-.4,3.63-1.9,4.52.03Z"/>
  <path class="cls-133" d="M678,210.69c-1.1.61-2.32,1.67-3,2-1.63.79-4.2,1.33-6,2,.01-.07-1.59-.32-1-.99.94-1.06,8.29-3.46,10-3.01Z"/>
  <path class="cls-258" d="M678,210.69c1.29-.72,2.75-1.23,4-2,1.29,1.07-.75,2.25-2,2.63-1.83.56-1.69-.55-2-.64Z"/>
  <rect class="cls-228" x="602.01" y="221.69" width="5.99" height=".98"/>
  <path class="cls-82" d="M642,222.67c.33-.01.67.03,1,0,.53.46.2.79-1,1-.33,0-.67,0-1,0-.66.02-1.34-.04-2,0-.33.02-.67-.02-1,0,.7-1.51,2.69-.95,4-1Z"/>
  <path class="cls-190" d="M641,204.69c-7.4,1.15-22.42.63-30,0,7.57-1.75,16.61-1.1,24.51-1.02,1.69.02,4.45-.64,5.49,1.02Z"/>
  <path class="cls-100" d="M483,121.77c-.86-1.58-2.43-3.76-3-5-2.67-5.77-4.66-12.75-6-18.98h1c1.39,5.91,5,14.25,7.49,19.99.45,1.04,2.58,3.34.51,3.98Z"/>
  <path class="cls-109" d="M421,297.6c1.06-1.47,1.91-.85,2,1,3.46,1.8,4.84,3.02,8,5l1.09,1.93c-90.23,128.59-180.47,257.19-270.73,385.81l-2.36-.12c-2.27-1.88-5.16-3.91-7-5.99-3.28-5.56-1.81-9.7,1-14.99,2.41-3.48,5.05-6.52,8-9.99,1.85-2.12,3.18-4.45,4-6.99,2.95-4.18,6.27-7.92,9-11.99,1.13-.66,2.13-1.99,3-4,.44-1.04,1.4-4.87,1.56-5.07.24-.3,1.66-.17,3.44-1.92l6-8.99c.67-1.01,1.34-2,2-3,1.54-1.66,3.28-3.71,3-5.99,2.46-3.69,4.67-7.49,7-10.99.72-1.08,2.98-2.95,4-4,2.7-2.91,4.7-5.91,6-8.99,1-1.33,2.01-2.66,3-4-.55-1.3.63-2.87,2-3,3.75-5.13,9.66-10.99,11.01-16.99l1.98,1.01c.18-.92-.22-2.25,0-3.01l3-4c2.49-1.76,6.63-8.26,10-11.99,1.4-1.43,2.07-2.76,2-4,.4-.69,1.62-3.49,2-4,2.48-1.07,4.48-3.07,6-5.99,2.8-5,5.86-9.26,9-13.99,2.13-.93,3.69-3.73,4-5.99,1.52-2.25,3.31-4.58,5-6.99,2.31-1.67,4.73-3.99,5-6.99,1.39-2.01,2.82-3.84,4-5.99-.24-1.12.43-2.46,2-4,2.1-2.12,2.62-3.18,4-5,.86-4.07,2.86-7.4,6-9.99.32-.23.66-.68,1-1,3.81-3.55,8.55-10.54,12-14.99.61-1.53,1.5-3.16,3-4,2.8-3.61,4.8-7.28,6-10.99,4.7-7.21,10.11-13.92,15-20.98,1.17.11,2.44-2,3-4,.79-1.13,1.82-1.75,2-2l3-3c.74-1.76,1.08-3.09,1-4,2.08-2.93,4.12-6.32,6-8.99,1.37-4.1,4.6-9.27,8-11.99.67-.86,2.09-1.92,3-3,1.9-2.31,3.24-4.64,4-6.99.7-.98,1.32-2.01,2-3,.53-2.82,2.38-5.82,5-6.99,1.47-1.35,3.47-3.69,6-6.99-1.98-.26-.73-3.62,1-4,2.01-1.93,2.48-3.05,4-5-.58-1.21.71-2.93,2-3,1.03-1.34,2.01-2.63,3-4-.49-1.35.64-2.78,2-3,.86-1.24,1.92-2.37,3-4-.02-1.93,1.16-4.1,3-5,1.9-2.97,3.24-4.62,5-7.99.61-1.98,1.61-3.31,3-4,3.08-2.81,5.52-6.62,6.01-11l1.96,1.01c-.14-2.08.99-3.41,2.02-5,.96-1.48,1.76-2.69,3-4,.96-.13,1.96-1.13,3-3,2.03-2.52,6.46-3.1,9-1Z"/>
  <path class="cls-126" d="M152,685.22c-.31-.35-.81-.68-1-1-2.31-.89-3.29-5.93-2-7.99.81-.11,3.11-4.71,4-5.99l-2.07,7.51,1.07,7.48Z"/>
  <path class="cls-71" d="M182,630.28c.52-3.71,4.27-6.36,6-8.99-.5,3.95-3.43,6.46-6,8.99Z"/>
  <path class="cls-226" d="M161,660.25c-2.15-2.43.79-2.12,2.03-3.77.75-1,1.25-2.19,1.97-3.22l1.01.52c-.5,2.99-3.43,4.63-5.01,6.47Z"/>
  <path class="cls-96" d="M149,676.23c-.41,3.04.46,5.46,2,7.99-.18.37-1.01.88-1,1-2.13-3.08-2.29-6.35-1.98-10,.51.06.91,1.02.98,1.01Z"/>
  <path class="cls-75" d="M190,618.29c.94-1.41,1.83-4.25,3-5.99l.97.55c-.4,2.29-1.81,4.41-3.97,5.45Z"/>
  <path class="cls-253" d="M174,641.27c.89-1.33,1.04-3.32,3-4-.69,1.64-.6,3.77-2.5,4.98l-.5-.98Z"/>
  <path class="cls-169" d="M435,305.59c3.43.59,7.53,3.67,10,5.99.05.44.41,1.18,1,1,1.02,3.55-2.04,2.84-4.55,1.75,1.16,9.21-4.04,18.8-11.72,23.7,1.84,3.55,2.45,7.3-2.73,7.2-7.72,10.64-14.04,22.26-18.98,34.88-2.13,1.96-3.13,4.43-3.01,7.4-18.45,31.53-39.43,61.99-63,89.91-2.25,4.09-4.54,8.15-6.96,12.14s-4.85,7.95-7.52,11.74c-35.61,50.58-72.46,102.79-108.53,150.95l.35,2.45c-1.29,2.38-5.9,8.87-8.35,8.54-2.69,8.86-8.61,17.38-16,22.98-1.52,6.49-4.91,12.49-10.17,18.01,2.13.92,2.85,2.25,2.17,3.97h-1c-9.22-3.1-19.51-10.8-27-16.98l272-387.62c1.01.63,2.56,1.08,4,2Z"/>
  <path class="cls-144" d="M195,686.22c3.97-2.2,7.67,4.88,8.69,8.43,4.12-6.64,6.56-8.11,7.31-4.43-2.7,3.72-5.14,8.62-8,11.99-2.15,2.54-1.97,2.61-5,4-2.94,2.9-7.19,3.27-11,2l-4.98-3.5c4.63-5.88,8.84-12.26,12.98-18.48Z"/>
  <path class="cls-145" d="M198,706.2c-2.79,4.99-7.81,3.4-12,2h1c3.82.44,7.56-.42,11-2Z"/>
  <path class="cls-108" d="M211,663.24c2.4-.75,4.48-2.42,6.26-5l11.01-3.56c1.54-5.47,8.98-12.92,10.73-4.42-1.02,1.25-1.87,2.64-3,4-1.19,1.24-1.86,2.57-2,4-.16,2.56-1.82,4.72-4,5.99-.93,1.34-2.04,2.64-3,4-3.43,4.83-6.59,9.28-10,13.99.36,1.78-1.26,4.3-3,5-.87,1.2-2.4,2.17-3,3-.56-2.1-2.5,1.19-2.83,1.67-1.79,2.59-2.74,5.38-6.16,6.33.26-5.29-2.97-9.06-7.01-11.99,5.22-7.83,10.46-15.38,16-22.98Z"/>
  <path class="cls-203" d="M214,687.22c1.02-1.4,1.85-3.4,3-5l.97.55c-.34,2.22-1.81,4.01-3.47,5.43l-.49-.98Z"/>
  <path class="cls-153" d="M451,46.85c.11,3.56-.85,7.61-2,10.99.84.44.58,1.22,0,2-3.96-.58-10.08,2.03-13.97,3.52-61.81,23.74-107.01,68.54-121.54,134.33-1.9,8.6-2.49,17.42-4.49,25.98-.37,9.74-.52,23.62.28,35.33l.72-.37,1.01,4.99,10.99-3.99c1.4,2.42-.88,4.16-6.83,5.21,1.61-.08.44,1.09-1.17,1.78.73.95.18,1.29-1,1-1.43-.33-4.5.02-4,1,.94-.09,1.31.03,1,1-1.63.66-4.9,2.93-7,4-1.43-.26-4.93.91-6,3-.86.5-2,1.36-3,2,0-1.33,0-2.66,0-4,.51-1.13,1.03-3.5,0-2h-1c-.64-1.14-.64-2.47,0-4-.22-13.93.14-27.81,1.07-41.63l.93-.33c-.66-3.56-.66-7.23,0-10.99-1.34-1.71-.6-5.59,1-6.99.65,3.45.99,1.79,1-5-.86-.33-.86-.67,0-1,.06-.67.75-2.84,1-4-.49-1.57-.09-3.95,1-5,.1.16.85-.16,1,0,3.72-11.77,7.39-23.43,11-34.97,1.18-2.71,2.71-5.33,4-7.99-.14-1.63.53-3.29,2-5,8.05-10.74,14.59-22.42,23-32.97.1-2.26,2.01-4.05,4-5,.98-1.16,2.13-2.02,3-3,.71-1.12,1.06-1.23,1.03-.34,2.94-3.47,6.36-7.06,9.97-9.65,1.81-2.12.55-1.71,4-4,1.42-.85,2.42-1.85,3-3-.85-1.19-.32-1.65,1-1,.32-.05.67.04,1,0l5-4c3.49-3.69,9.92-6.99,15-9.99,0-1.21.86-1.49,2-1,4.49-1.55,8.82-3.54,13-5.99,3.82-2.14,7.82-4.14,12-5.99.18-1.66,3.16-3.64,5-3,7.89-1.88,19.12-6.01,24-7.99-.07-1.46,2.6-2.48,4-2,.9-1.01,3.2-1.1,4,0Z"/>
  <path class="cls-2" d="M295,226.67c0,.54-.98,2.02-1,3.45-.13,10.79,1.2,29-1,38.51-.01-1.6.59-4.16-1-5-.79-8.7-.79-17.36,0-25.97.38-2.08.71-4.08,1-5.99-1.59-1.95-.83-8.31,1-9.99l1,5Z"/>
  <path class="cls-136" d="M266,227.67c-.08,2.65.05,5.34,0,7.99.84,2.61.87,5.4,0,7.99,0,.67,0,1.33,0,2,.86,10.55.56,21.45,0,31.97.02.33-.03.67,0,1-.28.87-.62.86-1,0l-1-5.99c-.08-2.32.03-4.67,0-6.99.85-4.29.84-8.7,0-12.99,0-2,0-4,0-5.99l1-11.99c.02-2.5-.78-6.34,1-7.99-.01.33.01.67,0,1Z"/>
  <path class="cls-181" d="M311,158.74c2.08.94.35,3.09-.13,4.37-3.89,10.39-6.73,19.57-9.77,30.22-.49,1.73.26,1.87-1.11.38-.14-3.16,1.18-6.04,2-8.99-.56-1.67-.2-3.79,1-5,1.22-3.91,3.47-8.96,5-12.99-.55-1.32-.33-3.14,1-4,.46-1.16,1.4-2.6,2-4Z"/>
  <path class="cls-51" d="M297,202.69c-.03.33.03.67,0,1,.23,1.62.28,4.11-1,5-.54,2.74-.83,3.81-1,6.99.07,2.31-.26,4.31-1,5.99-.44,3.53-.96,5.9-1,9.99-.28.87-.62.86-1,0-.28.87-.62.86-1,0,.5-8.4,2.3-17.37,3.86-25.67.35-1.86-.85-3.89,2.14-3.3Z"/>
  <path class="cls-241" d="M270,298.6c-.78.59-1.43.66-2,1-1.19-1.38-1.85-3.38-2-5.99-.58-4.97-.92-9.97-1-14.99h1l4,19.98Z"/>
  <path class="cls-159" d="M292,237.66c0,8.61.3,17.37,0,25.97-.04,1.18.76,4.2-.99,3.99.5-11.82-.71-24.21-.01-35.96h1c1.01,1.07.68,4.22,0,5.99Z"/>
  <path class="cls-271" d="M266,277.62c-.66-10.17,0-21.63,0-31.97,1.66,1.04,1,3.79,1.02,5.48.09,6.99.07,14.02,0,21.01-.02,1.69.64,4.44-1.02,5.48Z"/>
  <path class="cls-83" d="M358,94.8c-2.57,3-5.21,5.7-8,8.49-.46.46-2.58,3.49-3,1.5.76-.84,1.24-2.19,2-3,1.88-2.75,4.21-5.08,7-6.99.59-.12,1.36.08,2,0Z"/>
  <path class="cls-68" d="M402,65.83c-2.28,1.13-5.69,3.93-8.99,5.51-1.02.49-3.41,2.49-4.01.49.23-1.49,2.59-2.32,4-2,2.46-1.44,4.49-2.26,7-4,.38-.26.64-.71,1-1h1c.87.28.86.62,0,1Z"/>
  <path class="cls-150" d="M356,94.8c-1.48,3.01-4.93,4.79-7,6.99.61-3.05,4.08-6.39,7-6.99Z"/>
  <path class="cls-118" d="M393,69.82c-1.28.75-2.72,1.25-4,2-.64.37-1.36.62-2,1-2.24-1.27,4.05-3.61,5.44-3.94l.56.95Z"/>
  <path class="cls-42" d="M285,147.75c2.55,1.7-1.03,4.72-1.01,6.99l-.99-1c.77-1.77,1.02-3.96,2-5.99Z"/>
  <path class="cls-28" d="M344,107.79c-1.36,1.61-2.68,3.34-4,5l-1.01-.52c.43-2.36,2.98-3.68,4.51-5.46l.5.98Z"/>
  <path class="cls-172" d="M368,52.84c1.72,2.16-2.82,2.41-4,3,.59-2.51,2.83-2.28,4-3Z"/>
  <path class="cls-28" d="M366,86.81c-.83-.22-.68.73-1,1-.13,1.52-1.58,2.14-3,2-1.72-.47,1.21-3.12,2.09-3.57,1.42-.73,1.81.59,1.91.57Z"/>
  <path class="cls-271" d="M266,243.65c.01-2.66-.05-5.33,0-7.99,1.68,1.57,1.67,6.46,0,7.99Z"/>
  <path class="cls-175" d="M299,193.7c0,1.73-.64,3.34-1,5-2.09-1.37.47-4.72.01-6.99,1.79-.43.6,1.37.99,1.99Z"/>
  <path class="cls-198" d="M372,82.81c-1.69,1.78-1.78,3.62-5,4,1.05-1.98,2.66-3.73,5-4Z"/>
  <path class="cls-230" d="M303,179.72c-.43,1.39-.54,3.35-1,5-2.09-1.19.26-4.12.01-5.99l.99,1Z"/>
  <path class="cls-165" d="M281,157.74l.76.59c-.16,3.09-1.69,6.84-1.76,2.41.34-1.05.63-1.96,1-3Z"/>
  <path class="cls-46" d="M281,289.61c.88-1.31,1.71-3.06,3-4,2.1,2.94-1.26,3.09-3,4Z"/>
  <path class="cls-216" d="M315,150.74l-.96-.55c-.19-2.42,2.11-3.31,2.96-4.45-.17,1.87-1.21,3.37-2,5Z"/>
  <path class="cls-272" d="M276,292.61c-.75,1.98-2.57,2.75-4,4-.14-3.44,2.63-3.05,4-4Z"/>
  <path class="cls-250" d="M286,284.61c.37-.26.65-.76,1-1,.12-1.23,1.1-1.96,2-1,1.08,4.01-2.75,1.91-3,2Z"/>
  <path class="cls-29" d="M290,281.62c-.52.37-.8.86-1,1-.57.4-1.4.59-2,1l-.98-.49c1.02-1.04,1.87-2.44,3.46-2.51l.52,1.01Z"/>
  <path class="cls-55" d="M309,162.73c-.49,1.22-.53,2.76-1,4-2.06-.95-.04-3.42.01-4.99l.99,1Z"/>
  <path class="cls-73" d="M362,90.8v-1c.94-.73,2.1-1.24,3-2,1.62,2.25-2.14,2.43-3,3Z"/>
  <path class="cls-99" d="M294,274.62c0-.66-.03-1.34,0-2,.05-.99-.05-2,.01-2.99h.98c-.09,1.55.68,4.1-.99,4.99Z"/>
  <path class="cls-94" d="M293,272.63l-.99,1c-.89-2.17.73-3.88.99-5,.01,1.33,0,2.66,0,4Z"/>
  <path class="cls-116" d="M467,134.76v1c-5.98-11.06-10.63-21.33-14-32.97-.78-.27-.76-.61,0-1l1-1c2.38,9.94,8.14,24.92,13,33.97Z"/>
  <path class="cls-255" d="M520,167.73c-2.68.33-5.4-3.62-7-5.99-.88-2.03-.1-5.36,2-5.99.58-.1,1.35-.79,2-1-3.28,9.67-1.46,5.1,3.12,11.53.8,1.13-.13,1.38-.12,1.45Z"/>
  <path class="cls-133" d="M473,146.75c-2.21-3.55-4.02-7.32-6-10.99v-1c1.1,2.05,3.95,5.51,5.41,8.08.55.97,2.7,3.26.59,3.91Z"/>
  <path class="cls-89" d="M520,167.73c.11.6.78,1.34,1,2-.64-.51-2.72-.88-4-2-1.28.53-2.51-.6-2-2-1.07-1.31-1.47-2.44-2-4,.16.43,5.95,5.05,7,5.99Z"/>
  <path class="cls-141" d="M515,155.74c-.75,1.51-2.61,4.37-2,5.99-.53-1.54-1.43-1.13-.59-4.01,1.04-3.57,2.34-1.94,2.59-1.98Z"/>
  <path class="cls-228" d="M517,167.73c-1.74,1.98-3.93-.46-2-2,.16.2,1.73,1.76,2,2Z"/>
  <path class="cls-233" d="M486,163.73h-1c-.76-.91-1.27-2.06-2-3l.49-.98c1.81.58,2.04,3.46,2.51,3.98Z"/>
  <path class="cls-86" d="M263,277.62c-.72-7.12-1-13.55-1-20.98s.51-14.08,1-20.98v41.96Z"/>
  <path class="cls-64" d="M248,206.69c1.91,1.72,1.67,4.83-1,4,.16-1.34.82-2.66,1-4Z"/>
  <path class="cls-215" d="M406,34.86c1.81.16,3.57-.11,5.29-.8-.21,7.57.08,15.15.87,22.75,1.94-1.91,3.55-2.23,4.84-.96.93-2.8,2.09-2.65,3,0,1.18,1.14.56,1.59-1,1-1.98.82-3.62,2.37-5,3-3.25,2.15-6.25,3.15-9,3-1,.69-1.67.69-2,0,2.81-3.43-1.25-2.46-1.09-4.42.47-5.79-.52-6.68-.58-10.86-.07-5.63,5.46-7.46-1.33-9.69l2-2c1.34-.21,3.37-.96,4-1Z"/>
  <path class="cls-54" d="M405,62.83c1.31,1.52-1.36,2.62-3,2h-1c.53-.42.53-1.41,2-2,.45-.18,1.39.12,2,0Z"/>
  <path class="cls-147" d="M264,265.63c-.05-4.32,0-8.67,0-12.99,1.7,3.21,1.67,9.98,0,12.99Z"/>
  <path class="cls-147" d="M264,246.65c.02-3.78-.85-9.01,1-11.99-.02,3.78.85,9.01-1,11.99Z"/>
  <path class="cls-132" d="M268,299.6c-.08.04-.05,1.22-.99,1-.74-1.99-.78-3.93-1.01-5.99-.04-.33.04-.67,0-1l2,5.99Z"/>
  <path class="cls-147" d="M265,278.62c-1.76-.93-.93-4.12-1-5.99,1.68,1.09.97,4.11,1,5.99Z"/>
  <path class="cls-149" d="M451,94.8c-2.83-10.89-2.55-23.62-2-34.97.03-.66-.05-1.34,0-2,.28-.87.62-.86,1,0-1.04,10.84-.06,25.94,1,36.96Z"/>
  <path class="cls-266" d="M450,57.84h-1c.24-3.52,1.33-7.48,2-10.99.28-.87.62-.86,1,0-.57,2.87-1.76,8.44-2,10.99Z"/>
  <path class="cls-4" d="M453,42.85c-.14.59.13,1.4,0,2-.2.91-.94,1.68-1,2h-1c-1.23.18-2.91-.26-4,0-1.53.46-1.78.51-1-1,.31-1.85,1.7-2.66,4.16-2.44-.08-5.02,4.18-5.5,2.84-.55Z"/>
  <path class="cls-37" d="M453,101.79c.09.31-.09.69,0,1l-.98,1.01c-.43-3-.73-5.98-1.02-9,.59,2.25,1.36,4.7,2,6.99Z"/>
  <path class="cls-53" d="M445,21.87c3.4-.66,8.41-.61,12-1,2.18,2.18-4.9,13.83-2,16.99-.4,1.67-1.71,3.74-2,5-.01-1.35.44-2.3-.99-1.99.98,5.6-2.01,4.29-6.01,4.99-1.17,2.3-6.19,3.6-5.7-.54-1.3-.26-2.8-.98-3.38-2.21-.43-.91.13-17.69,2.08-19.22,1.37-.3,2.34-.85,3-1,1.09-.25,2.19-.84,3-1Z"/>
  <path class="cls-188" d="M429,27.86c.48,6.76.92,13.67,1.32,20.73,2.16-1.25,3.72-1.17,4.68.25.68-3.5,5.28-2.56,4,1-3.64,1.97-7.88,3.69-12,4l-7.23.81c-.87-.73-.7-21.64-.08-22.59.18-.27.91-.39,1.19-.19.78.56-1.27,1.26-1.88-1.01l8-4c.31-.08.69.08,1,0,.98-.07,1.34-.01,1,1Z"/>
  <path class="cls-182" d="M439,23.87c3.63,1.59.21,2.23-.05,5.43s.56,6.19.6,9.11c.02,1.7-2.96,3.17.47,4.8,1.15.55,3.3-1.55,1.98,3.62,1.55.48,2.92-.8,4-.99l1,1c-1.08.26-2.84,1.66-4,2-.63,1.03-2.88,1.55-4,1-.49-1.31-2.96-1.26-4-1-2.5.8-2.55.25-2.58-2.01-.07-4.88-.42-8.79-.86-13.76.74-2.31-.11-4.05-2.55-5.21l-1-1c3.57-.91,7.71-2.28,11-3Z"/>
  <path class="cls-88" d="M417,29.86l1,1c.49,2.08-.85,2.41-4,1-.25.85-.58.83-1,0v-1c1.57-.58,2.82-.62,4-1Z"/>
  <path class="cls-260" d="M418,30.86c.32-.04.67,0,1,0,1-.03,2,0,3,0-2,7.42,1.23,15.53-.99,22.97h5.99c-1.34,1.63-5.3,3.08-7,2-.87.17-2.35-.25-3,0-1.97-.29-2.94-1.89-2.92-4.8.75-6.63.46-12.75-.08-19.17,1.34-.23,2.66-.84,4-1Z"/>
  <path class="cls-207" d="M414,31.86c.29.02,1.74,1.51,3,1.01-3.23,2.99-.22,3.67-.11,6.43s-.97,8-.85,11.04c.07,1.89.9,3.62.97,5.5-1.51.59-4.48,4.62-6.5,1.99-1.84-2.4-.95-11.68-.86-14.65.09-3.17-1.9-5.2,1.36-8.31-1.94,1.41-4.7-.03-5,0,2.21.19,5.67-2.78,7-3,.3-.05.69-.02,1,0Z"/>
  <path class="cls-157" d="M460,323.58c1.14,1.46,1.47,2.79,1,4-1.66,3.37-3.33,6.7-5,9.99-2.24,3.37-4.69,6.63-7,9.99-1.81.67-2.87,3.13-3,5-1.24,1.8-2.85,3.33-4,5-1.28.15-2.54,1.85-2,3-9.08,13.29-20.66,33.23-31,44.96-3.11,3.58-5.44,7.25-7,10.99-.38.64-.64,1.35-1,2-1.31,1.67-2.69,3.33-4,5-.62-.14-2.55,1.19-2,3-1.71,2.25-3.31,4.69-5,6.99-2.16.88-3.67,3.74-4,5.99-.97,1.36-2.04,2.66-3,4-2.15.89-3.68,3.74-4,5.99-3.43,4.93-6.57,10.06-10,14.99-.5.72-1.49,1.28-2,2-.97-.04-2.04,1.14-2,3-.28,2.52-1.76,4.87-4,5.99-1.09.98-3.87,2.78-4,3-4.36.49-8.59.89-12.68,1.2l-2.32-2.2c21.11-29.87,41.84-60.09,63-89.91.67-1.83,1.37-3.65,2.21-5.4s1.68-3.46,2.78-5c12.09-16.91,24.43-33.74,36.84-50.42,1.13-1.52,2.46-2.89,3.82-4.24s2.85-2.63,4.34-3.88c1.35,1.12,4,3.69,5,5Z"/>
  <path class="cls-24" d="M520,368.53c1.11,2.45-.22,2.78-4,1-3.57-9.27-7.24-18.6-11-27.97-1.71-2.02-3.05-4.35-4-6.99-1.83-2.64-3.94-5.52-6-7.99-.74-2.4-2.88-5.3-4-5-1.34-1.46-3.49-3.5-5-5-.95-.94-2.12-2.19-3-3,.16-.92-1.71-2.82-4-3-.83-.71-1.47-1.55-2-2,.13-.92-1.7-2.83-4-3-9.14-7.26-19.01-13.94-29-19.98-.05-1.01-2.55-3.23-5-3-1.14-.66-2.15-1.53-3-2-.58-1.43-1.91-2.1-4-2-4.66-1.09-9.12-3.35-13-5.99-1.56-.69-3.82-2.52-5-3-29.19-13.67-67.32-12.37-100-3,.21-.64-.45-2.25.13-2.84.28-.29,4.08-.97,5.63-1.95,1.14-.73,1.92-2.02,2.24-2.21,63.22-37.55,158.61,19.75,187.53,78.89,4.72,9.65,7.72,19.65,10.47,30Z"/>
  <path class="cls-177" d="M446,312.59c2.11.96,7.11,4.43,9,5.99-16.21,23.28-33.58,45.78-50,68.93-3.98-5.73.43-6.02,1.31-8.21,3.61-8.91,8.18-17,12.25-25.69.45-.96,7.38-10.73,8.04-10.87.75-.16,2.11,1.13,2.38.82,1.01-1.21-2.27-6.74-2-6.98.22-.19,2.9-.15,5.07-2.45.61-.65,6.56-9.67,6.72-10.26.83-2.96.96-10.06.21-13.27,2.19-.3,3.14,1.98,5.03,2.6,1.26.41,1.88-.65,1.97-.61Z"/>
  <path class="cls-48" d="M314,266.63c32.5-10.84,66.15-11.14,98.22,1.29.71.27,4.3.7,1.78,1.7-1.74-.7-4.08-1.33-6-2-7.98-1.71-15.98-3.71-24-5.99-18.02-1.49-36.18-.15-54,2-5.72,1.37-14.68,3.83-20,5.99l-1-1c.91-1.63,2.41-2.05,4-1,.5-.3.77-.31,1-1Z"/>
  <path class="cls-142" d="M384,261.64c.87.28.86.62,0,1-16.85-2.23-32.39-.55-49,1.51-1.51.19-3.98,1.46-5-.51,16.48-3.94,37.24-4.13,54-2Z"/>
  <path class="cls-218" d="M408,267.63c-.88,1.92-3.2.43-4.52.03-5.4-1.62-14.1-4.31-19.48-5.03v-1c8.26,1.05,16.17,3.26,24,5.99Z"/>
  <path class="cls-105" d="M367,280.62c7.84.51,15.38,2.34,23.01,4.02-.14.42-1.04.9-1.01.97-7.3-1.51-14.52-2.62-22-3v-1c-.87-.28-.86-.62,0-1Z"/>
  <path class="cls-107" d="M409,405.5c-1.54,4.18-4.77,7.26-7,10.99-2.18-.63.23-2.83.8-3.7,2.07-3.18,4.54-5.4,6.2-7.29Z"/>
  <path class="cls-174" d="M432,278.62c-3.51.94-7.74-2.47-11.32-4.19-.75-.36-4.15-.87-1.68-1.8,4.4,1.95,8.75,3.71,13,5.99Z"/>
  <path class="cls-22" d="M445,311.59c-3.68-1.16-6.77-3.93-10-5.99.62-2.08,2.98,0,3.93.57,1.54.93,5.1,2.99,6.15,4.01s-.09,1.28-.07,1.41Z"/>
  <path class="cls-9" d="M367,280.62v1l-20.01-.5c0-1,18.07-.63,20.01-.5Z"/>
  <path class="cls-27" d="M423,298.6c-.63-.33-1.36-.71-2-1-2.35-1.2-5.02-1.53-8-1,.03-.07-1.45-.73-.09-1.46,2.78-1.49,6.1-1.2,8.79.25,1.69.91,2.97,1.24,1.3,3.21Z"/>
  <path class="cls-213" d="M462,327.57c-.21,2.41-4.49,7.72-6,9.99l-1.01-.52c1.67-3.26,3.81-6.49,6.01-9.47.28-.87.62-.86,1,0Z"/>
  <path class="cls-112" d="M421,297.6c-2.76-.72-6.48-.3-9,1,.3-.68.7-1.32,1-2,1.63-.98,3.61-1.3,5.48-1.02,2.22.33,2.38,1.95,2.52,2.02Z"/>
  <path class="cls-44" d="M303,273.62c-1.97,1-4.1,1.88-6,3-2.24-1.27,4.05-3.61,5.44-3.94l.56.95Z"/>
  <path class="cls-93" d="M444,285.61c-1.67-1.01-3.3-2.02-5-3l.55-.97c2.22.34,4.01,1.81,5.43,3.47l-.98.49Z"/>
  <path class="cls-48" d="M449,347.55c-1.02,1.49-1.88,3.37-3,5l-1.01-.52c.41-1.17,3.13-6.71,4.01-4.48Z"/>
  <path class="cls-80" d="M477,308.59c-1.26-1.05-2.71-1.97-4-3l.52-1.01c1.99.22,3.06,2.21,4.46,3.51l-.98.49Z"/>
  <path class="cls-219" d="M483,313.59c-1.15-1.06-2.8-1.96-4-3l.52-1.01c1.99.22,3.06,2.21,4.46,3.51l-.98.49Z"/>
  <path class="cls-237" d="M436,280.62c-1.3-.72-2.69-1.29-4-2,2.41-.64,2.69-.97,4.98,1.5l-.98.5Z"/>
  <path class="cls-243" d="M409,301.6c1.09-1.14,1.1-2.02,3-3-.66,1.49-.64,2.97-2.51,3.98l-.49-.98Z"/>
  <path class="cls-143" d="M442,357.54c-.68.99-1.32,2.01-2,3l-1.01-.52c.07-1.59,1.47-2.44,2.51-3.46l.49.98Z"/>
  <path class="cls-113" d="M462,327.57h-1l-1-4c.96,1.26,2.18,1.98,2,4Z"/>
  <path class="cls-155" d="M516,369.53c1.13-2.6,3.28-3.28,3.01,0l.99-1c3.72,13.95,4.41,25.52,6.98,39.54.34,1.85-1.14,4,2.02,3.42.89,3.41-5.48,4.62-6,1-1.17-5.15-1.82-10.5-1.95-16.03l-1.05-.95c-.34-1.19-.68-2.52-1-4-.93-.37-.5-1.13,0-2-.18-2.3-.77-4.54-1-6.99-.94-4.48-1.61-8.81-2-12.99Z"/>
  <path class="cls-261" d="M516,369.53c1.54,5.75,1.5,7.73,2,12.99-2.45-12.07-6.48-22.63-11-33.97-1.47-2.1-2.14-4.09-2-5.99v-1c5.35,9.48,8.11,17.15,11,27.97Z"/>
  <path class="cls-34" d="M520,395.51c3.19,13.85,3.79,31.82-2,44.96,2.28-16.45,1.91-29.51,1-45.96-.64-.96-.84-2.11,0-3,1.59.71.86,2.72,1,4Z"/>
  <path class="cls-57" d="M515,455.45c-2.01,6.85,2.09,7.99,12.29,3.42l.71.57c.87.28.86.62,0,1-2.67.66-12.77,5.55-15.11,2.4-1.93-2.59,4.03-18.45,5.11-22.38.39,4.92-.61,9.91-3,14.99Z"/>
  <path class="cls-122" d="M546,454.45c.69-.33,1.35-.52,2,0-2.49.82-6.55,3.28-9,4-3.03.88-7.85,1.22-11,2v-1c.83-1.37,2.45-1.21,4-1,1.06-3.57,11.57-7.27,14-4Z"/>
  <path class="cls-267" d="M505,342.56c.58,1.99,1.24,4.08,2,5.99l-4.54-7-.46-3.99c1.2,1.41,2.2,3.08,3,5Z"/>
  <path class="cls-183" d="M502,421.48c-.85-4.34-.68-10.41,0-14.99l.99-1.99c-.57,5.38,1.28,11.98-.99,16.98Z"/>
  <path class="cls-192" d="M502,421.48h-1c.07-4.84.3-10.21,0-14.99h1v14.99Z"/>
  <path class="cls-103" d="M505,341.56v1c-1.52-1.29-2.22-3.24-3-5-.44-.98-.94-1.89-1-3,2.27,3.26,2.42,4.19,4,6.99Z"/>
  <path class="cls-130" d="M495,326.57c-1.34-1.6-2.68-3.55-4-5l.49-.98c1.91,1.66,3.8,3.16,3.51,5.98Z"/>
  <path class="cls-244" d="M519,391.51c.07.99-.06,2,0,3-1.58-.66-1.58-4.34,0-5,.05.66-.04,1.34,0,2Z"/>
  <path class="cls-224" d="M357,478.42c-.65,1.08.23,1.46-2,4-1.28,1.56-1.95,2.9-2,4,.59.6.26,1.6-1,3-10.48,9.59-24.68,34.79-34,47.95-4.07,5.74-7.8,11.22-12,16.98-.08,1.9-.99,3.79-3,4-.54.73-1.46,1.29-2,2l-11,16.98c-.97,1.67-1.97,3.36-3,5,.24,1.7-2.08,5.31-4,5-.82.45-1.84.57-2.28-.15-.81-1.3-2.49-3.12-4.02-1.27-2.63,6.35-7.01,11.68-13.13,15.99-9.39,13.88-18.86,27.71-28.4,41.49l-14.12,9.82-2.04-.96c.16-1.74,1.24-2.96,2.18-4.31,39.71-57.16,80.65-113.67,120.82-170.52l2.98-.99c-.37,3.85,3.17.78,5.77.19,1.13-.26,2.3.68,2.8.65.3-.02,1.5-5.24,3.44,1.14Z"/>
  <path class="cls-123" d="M283,587.32c.87.28.86.62,0,1-2.22,2.23-3.96,4.64-6,6.99-3.44,4.01-5.44,7.34-6,9.99-1.61,2.38-3.37,4.65-5,6.99-2.75,2.43-6.08,6.43-10,11.99-1.27,2.25-2.27,4.58-3,6.99-4.57,6.43-9.01,12.86-14,18.98-1.95.82-2.06-1.96-2.44-1.94-5.16.37-5.18,6.76-7.23,8.02-3.69,2.27-8.17,2.27-11.11,3.63-2.36,1.1-3.43,6.88-7.22,3.27,2.83-3.88,4.11-7.41,8-10.99,1.49-1.37,13.86-8.8,14.73-10.26,8.19-13.84,19.61-26.59,27.82-40.66,1.72-2.95,8.25-7.05,9.91-9.07,1.51-1.84,2.22-6.51,4.04-7.94,1.95-1.52,3.2-.58,4.81-1.02,1.17-.32.33-2.29,1.19-1.97,2.33.84.08,4.55,1.51,5.99Z"/>
  <path class="cls-117" d="M298,566.34c-.63,3.09-3.66,6.96-6,8.99l-2,2c4.09-7.09,5.95-10.26,11-16.98-.55,2.04-1.85,4.25-3,5.99Z"/>
  <path class="cls-26" d="M266,612.29c-2.85,4.09-6.18,7.95-9,11.99-.31.46-.64.45-1,0,2.29-3.51,4.64-6.96,7.19-10.3.38-.49,2.19-3.82,2.81-1.69Z"/>
  <path class="cls-257" d="M292,575.33c1.36-3.42,4.03-5.99,6-8.99,2.19.64-.23,2.82-.8,3.7-1.11,1.73-4.29,7.55-5.2,5.29Z"/>
  <path class="cls-18" d="M271,605.3l-.97-.58c.22-3.63,4.67-6.76,6.97-9.41-1.21,3.62-3.88,6.84-6,9.99Z"/>
  <path class="cls-152" d="M283,588.32v-1c1.09-1.21,3.21-3.74,4-5l1.01.52c-.7,1.68-2.19,4.45-3.53,5.61-.97.84-1.42-.19-1.48-.14Z"/>
  <path class="cls-63" d="M253,631.28c-2.14-1.02,1.9-5.31,3-6.99h1c-1.24,1.77-2.41,4.76-4,6.99Z"/>
  <path class="cls-76" d="M230,664.24c1.36-1.96,2.71-3.98,4-5.99.28.56,1.31.09.55,1.96-.28.7-4.08,6.34-4.55,4.04Z"/>
  <path class="cls-204" d="M306,554.35c2.35,1.35-4.02,9.05-3,4,.99-1.34,2.01-2.64,3-4Z"/>
  <path class="cls-104" d="M325.5,541.38c1.77.02,1.7,3.97,0,3.96s-1.7-3.97,0-3.96Z"/>
  <path class="cls-69" d="M234,658.25c-1.6-3.23.33-1.98,2-4-.1,1.64-1.18,2.72-2,4Z"/>
  <path class="cls-144" d="M652,344.56l8-1.01c1.03-2.43-1.96-4.9-1.84-6.33.19-2.22,6.72-10.21,6.9-13.63,5.57,3.04,4.84-4.18,9.49-3.99,4.06.17,1.14,4.4,2.08,6.71.48,1.18,1.94,1.41,2.78,2.37.71.8.23,2.82,1.17,2.98,1.15.2,5.59-.82,6.44-1.58,1.26-1.12,1.09-5.52,2.49-5.48.54.02,2.21,3.3,5.49-.02.23,6.35-4.18,2.16-4.98,3-1.87,1.95,2.05,3.29,2.05,3.51-.02,2.84-4.79,7.89-5.69,10.46-.63,1.8.56,1.71.64,2.01.31,1.56-.35,3.44-2,4-2.19,3.35-4.73,6.68-7,9.99-1.19.85-2.19,2.18-3,4-4.39,8.9-10.51,14.29-16,21.98-.84-.07-3.01,1.85-3,4,.07,1.92-1.24,3.38-3,4-.93.98-2.03,2.02-3,3-1.87,2.62-4.2,4.95-7,6.99-.95.72-2.06,1.27-3,2-1.06-.34-4.49,2.03-5,4-3.68,2.85-7.35,6.05-11,8.99-1.22-.32-2.89.68-5,3-1.14.87-2.08,2.15-3,3-7.15,3.73-13.95,8.08-21,11.99-3.8.78-7.46,2.45-11,5,1.13,1.39-1.55,2.51-3,2-4.46.5-8.8,1.83-13,4-6.25,2.73-12.58,5.06-19,6.99.37,1.11-.63,1.77-3,2-4.54.41-9.52,2.78-14,4l-3.32.13c-12.25,4.59-16.47,3.54-12.68-3.12,2.24-11.43,4.57-22.75,7-33.97.82-4.68,2.6-5.35,5.33-2.01,48.64-3.88,91.2-34.88,119.82-72.99l3.85-1.93Z"/>
  <path class="cls-176" d="M707,300.6c-1.57,5.94-3.83,14.39-6,19.98s-7.48,16.18-11,18.98c4.4-8.4,7.89-16,11-24.98.52-4.81,2.29-11.35,5-14.99l1,1Z"/>
  <path class="cls-209" d="M643,401.5c1.55-3.01,4.81-4.78,7-6.99-.3,4.08-4.71,5.27-7,6.99Z"/>
  <path class="cls-249" d="M640,403.5c-1.69,1.31-3.31,2.69-5,4l-.98-.49c1.78-1.53,3.1-4.07,5.46-4.51l.52,1.01Z"/>
  <path class="cls-148" d="M624,416.49c-1.54,1.24-3.68,1.98-5,3-1.42-1.58,2.93-3.31,4.48-4l.52,1.01Z"/>
  <path class="cls-115" d="M659,383.52c-.69.97-1.4,1.97-2,3l-1,1-1.01-.52c.22-1.99,2.22-3.06,3.51-4.46l.5.98Z"/>
  <path class="cls-32" d="M653,391.51c1.03-1.08,2.03-2.76,3-4,.29-.37.66-.68,1-1-.77,1.3.25,5.07-4,5Z"/>
  <path class="cls-45" d="M685,347.55c.79-1.21,1.21-2.79,2-4,.08.31,1.19.17.64,2-.38,1.24-1.56,3.28-2.64,1.99Z"/>
  <path class="cls-160" d="M678,357.54c-.89,1.3-1.03,3.33-3,4,.6-1.22.78-5.6,3-4Z"/>
  <path class="cls-139" d="M586,439.46c-.01.08.84.5.98.91-5.82,2.33-11.49,5.09-17.44,7.13-1.3.45-3.68,1.83-4.53-.04.55-.85,1.55-1.51,3-2,4.18-2.16,8.52-3.49,13-4,.77-.31,2.9-1.36,3-2,.85-.98,1.71-1.39,2,0Z"/>
  <path class="cls-50" d="M568,445.46c-.7.32-1.65,1.39-3,2s-2.91,1.58-4,2c-2.86,1.92-8.68,3.56-12,3,0-.14-.86-.56-1.01-.98,6.75-1.63,13.42-3.89,20.01-6.01Z"/>
  <path class="cls-47" d="M561,449.45c2.51.96-1.1,1.5-1.76,1.73-3.71,1.25-7.58,2.07-11.24,3.27-.66.04-1.34-.06-2,0,.6-.77,3.04-.93,3-2,3.49-.93,8.81-1.77,12-3Z"/>
  <path class="cls-164" d="M595,434.47c-1.63.9-8.8,3.83-9,5h-2c.29-1.91,3.44-2.79,6.99-4.51,1.01-.49,3.42-2.49,4.01-.49Z"/>
  <path class="cls-154" d="M390,433.47c-1.41,1.92-2.61,4.05-4,5.99l-1.01-.52c.56-1.44,3.69-7.52,5.01-5.48Z"/>
  <path class="cls-19" d="M383,443.46c-1.39,1.95-2.63,4.03-4,5.99l-1.01-.52c.56-1.44,3.69-7.52,5.01-5.48Z"/>
  <path class="cls-14" d="M397,423.48c-.74.94-1.28,2.05-2,3l-1.01-.52c.07-1.59,1.47-2.44,2.51-3.46l.49.98Z"/>
  <path class="cls-98" d="M408.99,417.48c-.65-.6-3.21-.99-2.99-1.49,1.08-2.41,3.31-.97,2.99,1.49Z"/>
  <path class="cls-211" d="M356,485.42c-1.08,1.67-2.59,2.71-4,4,.11-1.08.45-2.06,1-3-.93-1,.84-2.45,2-3,.57.52.96,1.21,1,2Z"/>
  <path class="cls-36" d="M361,475.43c1.34-1.98,2.62-4.04,4-5.99,1.08,2.17-.43,4.04-2.52,6.11-.82.81-1.42-.17-1.48-.12Z"/>
  <path class="cls-125" d="M355,483.42c-.17,1.33-1.49,2.13-2,3-2.88-1.41,1.19-3.08,2-4v1Z"/>
  <path class="cls-65" d="M367,466.44c-.7.98-1.31,2.02-2,3-1.18-2.36-.83-1.73,1.5-3.98l.5.98Z"/>
  <path class="cls-56" d="M350,387.51c-2.72,3.51-5.3,8.15-8,11.99-2.18-.63.23-2.83.8-3.7,1.43-2.21,2.87-4.46,4.37-6.62.34-.48,2.26-3.78,2.83-1.67Z"/>
  <path class="cls-273" d="M306,453.45v-1c2.09-3.22,3.9-6.78,6-9.99,2.08.61,0,2.98-.58,3.92-1.61,2.65-3.56,4.68-5.42,7.07Z"/>
  <path class="cls-171" d="M365,365.54c.83.88.14,1.86-1,2-1.61,2.32-3.41,4.68-5,6.99-1.86-1.43,2.24-6.01,3.17-7.32.34-.48,2.26-3.77,2.83-1.67Z"/>
  <path class="cls-151" d="M370,360.54c-1.08,2.8-3.41,5.84-5.51,7.97l-.49-.98c.41-.59.59-1.41,1-2,.84-1.19,2.1-2.94,3-4-.25-1.86.93-2.96,2-1Z"/>
  <path class="cls-235" d="M353,384.52c.39-3.15,2.54-4.94,4-6.99l1.01.52c-.48,2.99-3.45,4.63-5.01,6.47Z"/>
  <path class="cls-210" d="M371,356.54c-1.04,1.11-.62,3.01-1,4-1-.07-1.4.3-2,1l-1.01-.52c.57-1.42,1.87-4.09,3.02-4.96.45-.34.95.52.99.49Z"/>
  <path class="cls-274" d="M388,332.57c-1.04,1.62-1.92,3.37-3,5l-1.01-.52c.69-1.54,2.43-5.9,4.01-4.48Z"/>
  <path class="cls-222" d="M327,421.48c.96-1.38,2.06-2.65,3-4,.27,2.24-.8,3.71-2.51,4.98l-.49-.98Z"/>
  <path class="cls-13" d="M396,320.58l-3,4c.57-1.08.38-2.62,1.55-4.08.78-.96,1.39.13,1.45.08Z"/>
  <path class="cls-84" d="M334,412.49c.3-.56.63-.55,1,0-.75,1.29-1.77,2.42-2.17,3.92l-.83-.92c.65-.92,1.27-1.97,2-3Z"/>
  <path class="cls-7" d="M306,453.45c-.93,1.19-2.03,2.75-3,4,.02-2.33,2-3.45,3-5v1Z"/>
  <path class="cls-41" d="M335,412.49h-1c.53-.75.99-2.58,2-4l1.01.52c-.18,1.44-1.34,2.33-2.01,3.48Z"/>
  <path class="cls-262" d="M382,341.56c-.68.98-1.3,2.03-2,3l-1.01-.52c.07-1.59,1.47-2.44,2.51-3.46l.49.98Z"/>
  <path class="cls-61" d="M377,348.55c-.73.94-1.27,2.06-2,3l-1.01-.52c.07-1.59,1.47-2.44,2.51-3.46l.49.98Z"/>
  <path class="cls-10" d="M290,473.43c-1.01,3.92-3.6,6.84-6,9.99l1.01-4.99c-2.46.66-4.25-.67-3-3.01.13-.24,4.05.28,5.48-.27.16-.06,2.25-1.55,2.51-1.73Z"/>
  <path class="cls-3" d="M204,597.31c.8-3.61,3.83-6.13,6-8.99,2.14.58-.19,2.88-.78,3.72-1.78,2.58-4.26,4.28-5.22,5.27Z"/>
  <path class="cls-90" d="M245,538.37c1.4-1.89,4.21-4.3,6-5.99-1.26,2.26-2.84,8.35-6,5.99Z"/>
  <path class="cls-95" d="M269,505.4c1.47-2.1,3.31-4.54,5-6.99,2.14,1.43-2.51,7.13-5,6.99Z"/>
  <path class="cls-200" d="M260,518.39c1.33-2,2.66-4.01,4-5.99l1.01.52c-.56,1.44-3.69,7.52-5.01,5.48Z"/>
  <path class="cls-58" d="M278,492.41c-2.81-1.38,1.04-3.03,2-4-.04,1.67-1.29,2.69-2,4Z"/>
  <path class="cls-74" d="M241,546.36c.07-1.65,1.24-2.7,2-4,2.86,1.41-1.16,3.07-2,4Z"/>
  <path class="cls-269" d="M228,562.34c.82-2.73.78-2.42,3-4-.06,1.97-1.27,3.24-3,4Z"/>
  <path class="cls-252" d="M215,581.32c-.71.96-1.28,2.04-2,3l-1-.52c.05-1.53,1.71-3.6,3-2.48Z"/>
  <path class="cls-220" d="M675,222.67c-1.7-5.86,4.04-4.3,3.17,1.14,1.73-.68,2.72-.95,3.83.85,9.54,32.17-10.89,92.72-30,119.88-27.41,38.96-74.51,73.76-123.52,76.91-.93.06-2.13.2-2.97.02-1.26-.27.87-2.05.49-3l-2.99,2.99c-1.29-2.48-1.24-6.48,0-8.99,2.51.85,4.42-.63,6-1,3.13-.73,5.57-.68,8.25-1.25,72.01-15.48,126.88-85.94,136.62-157.23,1.44-10.57.5-20.03,1.13-30.34Z"/>
  <path class="cls-106" d="M675,214.68c.67,4.81,3.02,1.05,4.48,2.97.86,1.12,2.02,5.33,2.52,7.02-9.02,3.46-4.69-1.04-6.01-3.99h-.98c-.05.66.03,1.33-.01,1.99-.95-1.24-2.25-6.29-2.08-7.4.18-1.19,1.8-.39,2.08-.6Z"/>
  <path class="cls-77" d="M309,223.67c1.71,10.83-.65,23.79,1,34.97l-.99,2.99c-1.49-13.59-.95-27.28-1-40.95,1.77-.25.81,1.87.99,2.99Z"/>
  <path class="cls-91" d="M656,220.68c.01.16.86.55,1.01.98-5.7,1.3-9.57,2.02-15.01,2.02l1-1c4.68-.36,8.45-1.55,13-2Z"/>
  <path class="cls-265" d="M569,219.68c-3.24-.67-6.4-.98-10.24-2.27-.66-.22-4.27-.77-1.76-1.73,3.87,1.51,8.24,2.1,12,4Z"/>
  <path class="cls-59" d="M532,130.76c.61-.94,1.06-2.56,2-4l.96.55c-.24,1.72-1.16,3.29-2.46,4.42l-.5-.98Z"/>
  <path class="cls-158" d="M708,285.61c-.28.87-.62.86-1,0,5.35-24.02,5.95-46.64,5-70.93-.01-.33.02-.67,0-1,1.1,3.13,1.87,8.13,2.04,11.45,1.15,22.16-1.65,39.23-6.04,60.48Z"/>
  <path class="cls-185" d="M706,295.6c-.28,1.11.29,2.91,0,4-1.2,4.53-3.41,10.39-5,14.99-1.98-.92-.37-3.18,0-4.49,1.36-5,3.18-9.89,3.96-15.04l1.04.56Z"/>
  <path class="cls-193" d="M707,292.61c-1.82-1.13-.45-4.96,0-6.99h1c-.44,2.11-.41,4.46-1,6.99Z"/>
  <path class="cls-232" d="M443,48.84l.55,1.03c-7.03,1.35-13.49,4.48-20.18,6.83-1.28.45-3.39,2.25-4.36.13.37-.15.69-.87,1-1,1.73-.7,4.87-1.19,7-2,3.98-1.5,7.94-2.74,12-4,1.46-.45,2.74-.64,4-1Z"/>
  <path class="cls-263" d="M414,59.83l-7.64,4.88c-1.1,1.09-3.56.72-4.36,1.11v-1c1.3,0,2.41-1.75,3-2,2.23-.95,6.68-1.94,9-3Z"/>
  <path class="cls-24" d="M313,267.63c-.8.48-2.86.57-4,1-1.44.54-3.64,2.81-5,1.5,1.84-3.77,4.33-2.33,5.51-2.71.93-.3-.28-3.64,3.49.21Z"/>
  <path class="cls-187" d="M295,226.67c0-.41-1.96-3.37-1-5,.23-1.85-.83-4.87,1-5.99-.01.25.69.92.68,1.63-.05,2.93-1.28,6.19-.68,9.36Z"/>
  <path class="cls-187" d="M297,203.69c-.01.14,1.02.84.97,1.57-.19,2.48-1.33,4.85-.98,7.42-1.79.35-.77-2.3-.99-3.99.31-1.56-.23-3.47,1-5Z"/>
  <path class="cls-161" d="M292,237.66v-5.99h1c-.02,1.88.67,4.91-1,5.99Z"/>
  <path class="cls-114" d="M429,27.86c.72-.39,3.81-.51,4.99-1,.32,2.05-.6,4.17-.45,6.14.28,3.67,1.13,8.14,1.32,11.33.09,1.4-1.3,3.62.13,4.5-1.32.32-6.94,3.85-8,2.99,4.27-4.12-3.02-21.22,2-23.97Z"/>
  <path class="cls-223" d="M523,412.49c.04,2.96.15,6.04,0,8.99-.7,13.41-3.78,21.71-7,33.97-.28.87-.62.86-1,0,1.2-5.42,2.21-9.3,3-14.99,4.4-16.09,3.87-28.18,2-44.96,2.73-1.79,1.87-.97,2,1.48.28,5.19.92,10.35,1,15.5Z"/>
  <path class="cls-131" d="M516,455.45c-.37,1.39.23,3.37-1,4.99,2.9,2.14,13.53-4.65,17-1.99-1.33.36-2.67.66-4,1-2.46.63-10.67,3.28-12.42,2.87-2.86-.67-.98-5.08-.58-6.87h1Z"/>
  <path class="cls-12" d="M581,441.46c-4.24,1.72-8.85,2.66-13,4,3.32-1.53,9.2-6.1,13-4Z"/>
</svg>